<?xml version="1.0" encoding="UTF-8"?>
<svg version="1.1" xmlns="http://www.w3.org/2000/svg" width="512" height="512">
<path d="M0 0 C1.3958431 -0.00461769 2.79168133 -0.0109764 4.18750954 -0.01890898 C7.99528633 -0.03550658 11.80265877 -0.02740003 15.61043644 -0.0149641 C19.72776501 -0.0058764 23.84502631 -0.0199017 27.96234131 -0.03088379 C36.01714488 -0.04863406 44.07179904 -0.04484464 52.12660837 -0.03323323 C58.67517729 -0.0241854 65.22370445 -0.02298073 71.77227783 -0.02732849 C73.17238647 -0.02824789 73.17238647 -0.02824789 74.60078013 -0.02918586 C76.49720622 -0.03046481 78.3936323 -0.03176167 80.29005837 -0.03307623 C98.05664433 -0.04447179 115.82314762 -0.03138439 133.58972001 -0.00987476 C148.82141072 0.00799529 164.05297946 0.00489089 179.28466797 -0.0135498 C196.98936405 -0.0349746 214.69398775 -0.04337325 232.39869499 -0.03110075 C234.2879931 -0.02982661 236.17729122 -0.02856912 238.06658936 -0.02732849 C238.99606593 -0.02671139 239.9255425 -0.02609429 240.88318503 -0.02545848 C247.42094073 -0.02201042 253.95865036 -0.02782221 260.49639893 -0.0372467 C268.46797544 -0.04848596 276.43939448 -0.04538621 284.41095304 -0.02412373 C288.47516511 -0.01363917 292.53911499 -0.00944692 296.60332489 -0.02272034 C300.32916259 -0.03470427 304.0544969 -0.02798403 307.78028941 -0.00681013 C309.75496347 -0.00027757 311.72967291 -0.01322632 313.70430946 -0.02703905 C325.71953106 0.07805954 335.14451836 3.13112514 343.91943359 11.50793457 C353.75089737 21.80663623 355.52205299 32.57318785 355.29077148 46.41516113 C355.28147701 47.883229 355.27412714 49.35131026 355.26855469 50.81939697 C355.25350154 53.95858512 355.22680442 57.09737411 355.19133186 60.23639679 C355.13721696 65.20435226 355.12160356 70.17198127 355.11314392 75.14019775 C355.08414253 89.25961083 355.01873921 103.37839027 354.88208008 117.49719238 C354.80676271 125.3121972 354.77077718 133.12636991 354.77810854 140.94174552 C354.78056856 145.87784355 354.73494178 150.81037609 354.65353119 155.74576616 C354.61455466 158.81666101 354.62178524 161.88616944 354.64202118 164.95719147 C354.64222664 166.37666495 354.62367688 167.79628885 354.58463097 169.21522522 C354.47199728 173.53064797 354.54070692 177.3982748 355.91943359 181.50793457 C359.22740059 184.72125413 362.78599587 186.54454439 366.91943359 188.50793457 C369.19347305 190.07974814 370.26140587 191.22099978 371.91943359 193.50793457 C372.52940259 199.66307625 370.85841774 204.70272252 368.91943359 210.44543457 C368.63326172 211.32006348 368.34708984 212.19469238 368.05224609 213.0958252 C367.3504202 215.23639417 366.6393497 217.37339607 365.91943359 219.50793457 C366.54430664 219.80828613 367.16917969 220.1086377 367.81298828 220.41809082 C370.00761091 221.55355621 371.43749632 222.75850298 373.16943359 224.50793457 C373.69021484 225.02355957 374.21099609 225.53918457 374.74755859 226.07043457 C375.91943359 227.50793457 375.91943359 227.50793457 375.91943359 229.50793457 C376.45834229 229.32617676 376.99725098 229.14441895 377.55249023 228.95715332 C380.02549314 228.12990243 382.50352841 227.31884975 384.98193359 226.50793457 C385.82949219 226.2217627 386.67705078 225.93559082 387.55029297 225.64074707 C392.41559502 224.06281127 396.76371452 222.70018421 401.91943359 223.50793457 C406.30896174 226.89152918 409.05870074 231.45764481 411.91943359 236.13293457 C412.56972534 237.1914563 412.56972534 237.1914563 413.2331543 238.2713623 C421.82103505 252.45757975 421.82103505 252.45757975 422.04443359 259.38293457 C420.35350672 264.07995365 416.9550781 266.64465195 413.17333984 269.79699707 C410.36813623 272.2317021 408.03972627 274.45056753 405.91943359 277.50793457 C405.64741962 281.54014173 406.6932656 284.70802782 407.91943359 288.50793457 C407.91943359 289.82793457 407.91943359 291.14793457 407.91943359 292.50793457 C408.90169922 292.67229004 408.90169922 292.67229004 409.90380859 292.83996582 C415.10640418 293.74380658 420.27473316 294.75336984 425.41943359 295.94543457 C426.39912109 296.17102051 427.37880859 296.39660645 428.38818359 296.62902832 C431.05051378 297.55344852 432.22025539 298.29137839 433.91943359 300.50793457 C435.10869352 304.07571434 435.10039942 307.34738946 435.12255859 311.06262207 C435.12825867 311.80118439 435.13395874 312.5397467 435.13983154 313.3006897 C435.14927005 314.86243258 435.15581096 316.42419527 435.15966797 317.98596191 C435.16937006 320.36733983 435.20040137 322.74785301 435.23193359 325.12902832 C435.23846454 326.64855446 435.24371465 328.16808676 435.24755859 329.68762207 C435.2599054 330.39611298 435.2722522 331.10460388 435.28497314 331.83456421 C435.26529533 336.23189504 434.68601119 339.05011214 431.91943359 342.50793457 C424.79526024 345.93809211 415.83850996 348.50793457 407.91943359 348.50793457 C407.77505859 349.68355957 407.63068359 350.85918457 407.48193359 352.07043457 C407.14900106 354.7814566 406.73184824 357.29472622 406.09521484 359.96496582 C405.54981411 363.57618649 405.54981411 363.57618649 407.83349609 366.20324707 C408.72810547 367.00504395 409.62271484 367.80684082 410.54443359 368.63293457 C411.86314453 369.84336426 411.86314453 369.84336426 413.20849609 371.07824707 C415.01711904 372.6992319 416.84554316 374.29838865 418.69287109 375.87512207 C421.54333283 379.24566806 421.95689297 381.10645761 421.91943359 385.50793457 C421.07305665 388.28025088 419.81058144 390.72197187 418.41943359 393.25793457 C418.05358154 393.95314209 417.68772949 394.64834961 417.31079102 395.36462402 C407.74347758 413.28550268 407.74347758 413.28550268 401.91943359 417.50793457 C395.76429192 418.11790357 390.72464565 416.44691872 384.98193359 414.50793457 C384.10730469 414.2217627 383.23267578 413.93559082 382.33154297 413.64074707 C380.19097399 412.93892118 378.0539721 412.22785068 375.91943359 411.50793457 C375.61908203 412.13280762 375.31873047 412.75768066 375.00927734 413.40148926 C373.87381195 415.59611189 372.66886518 417.0259973 370.91943359 418.75793457 C370.40380859 419.27871582 369.88818359 419.79949707 369.35693359 420.33605957 C367.91943359 421.50793457 367.91943359 421.50793457 365.91943359 421.50793457 C366.10119141 422.04684326 366.28294922 422.58575195 366.47021484 423.14099121 C367.29746574 425.61399412 368.10851841 428.09202939 368.91943359 430.57043457 C369.20560547 431.41799316 369.49177734 432.26555176 369.78662109 433.13879395 C371.36455689 438.004096 372.72718395 442.3522155 371.91943359 447.50793457 C368.53583898 451.89746272 363.96972335 454.64720172 359.29443359 457.50793457 C358.23591187 458.15822632 358.23591187 458.15822632 357.15600586 458.82165527 C342.96978841 467.40953603 342.96978841 467.40953603 336.04443359 467.63293457 C331.34741451 465.9420077 328.78271621 462.54357908 325.63037109 458.76184082 C323.19566607 455.9566372 320.97680063 453.62822725 317.91943359 451.50793457 C313.88722644 451.2359206 310.71934034 452.28176658 306.91943359 453.50793457 C305.59943359 453.50793457 304.27943359 453.50793457 302.91943359 453.50793457 C302.75507812 454.4902002 302.75507812 454.4902002 302.58740234 455.49230957 C301.68356158 460.69490516 300.67399833 465.86323414 299.48193359 471.00793457 C299.25634766 471.98762207 299.03076172 472.96730957 298.79833984 473.97668457 C297.87391964 476.63901476 297.13598977 477.80875637 294.91943359 479.50793457 C291.35165382 480.69719449 288.07997871 480.68890039 284.36474609 480.71105957 C283.25690262 480.71960968 283.25690262 480.71960968 282.12667847 480.72833252 C280.56493558 480.73777102 279.00317289 480.74431194 277.44140625 480.74816895 C275.06002834 480.75787103 272.67951516 480.78890235 270.29833984 480.82043457 C268.7788137 480.82696551 267.25928141 480.83221563 265.73974609 480.83605957 C265.03125519 480.84840637 264.32276428 480.86075317 263.59280396 480.87347412 C259.19547313 480.85379631 256.37725603 480.27451217 252.91943359 477.50793457 C249.48927605 470.38376121 246.91943359 461.42701094 246.91943359 453.50793457 C245.06396484 453.28006999 243.20849609 453.0522054 241.35302734 452.82434082 C238.91943359 452.50793457 238.91943359 452.50793457 235.46240234 451.68371582 C231.85118167 451.13831508 231.85118167 451.13831508 229.22412109 453.42199707 C228.42232422 454.31660645 227.62052734 455.21121582 226.79443359 456.13293457 C225.58400391 457.45164551 225.58400391 457.45164551 224.34912109 458.79699707 C222.72813627 460.60562001 221.12897951 462.43404414 219.55224609 464.28137207 C216.18170011 467.13183381 214.32091055 467.54539395 209.91943359 467.50793457 C207.14711728 466.66155763 204.70539629 465.39908242 202.16943359 464.00793457 C201.47422607 463.64208252 200.77901855 463.27623047 200.06274414 462.89929199 C182.14186548 453.33197856 182.14186548 453.33197856 177.91943359 447.50793457 C177.3094646 441.35279289 178.98044945 436.31314662 180.91943359 430.57043457 C181.20560547 429.69580566 181.49177734 428.82117676 181.78662109 427.92004395 C182.48844699 425.77947497 183.19951748 423.64247307 183.91943359 421.50793457 C183.29456055 421.20758301 182.6696875 420.90723145 182.02587891 420.59777832 C179.83125628 419.46231293 178.40137087 418.25736616 176.66943359 416.50793457 C175.88826172 415.73449707 175.88826172 415.73449707 175.09130859 414.94543457 C173.91943359 413.50793457 173.91943359 413.50793457 173.91943359 411.50793457 C173.11107056 411.78057129 173.11107056 411.78057129 172.28637695 412.05871582 C169.81337405 412.88596671 167.33533878 413.69701939 164.85693359 414.50793457 C164.009375 414.79410645 163.16181641 415.08027832 162.28857422 415.37512207 C157.38200399 416.96644215 153.14277907 418.07568951 147.91943359 417.50793457 C144.93855784 415.05699229 143.05591361 412.71265459 140.91943359 409.50793457 C138.9705875 409.05826871 138.9705875 409.05826871 136.69081116 409.13612366 C135.8036441 409.12936615 134.91647705 409.12260864 134.00242615 409.11564636 C132.53834068 409.12722527 132.53834068 409.12722527 131.04467773 409.13903809 C129.50529541 409.13338837 129.50529541 409.13338837 127.93481445 409.12762451 C125.69929481 409.12117458 123.46374777 409.12153833 121.22822762 409.12780952 C117.683739 409.13689426 114.13978241 409.12672267 110.59532166 409.1111908 C100.51513555 409.07103605 90.43498907 409.06987956 80.35473633 409.07214355 C74.19259738 409.07219483 68.03074208 409.05293265 61.86868095 409.02280998 C58.38834367 409.01202292 54.90855726 409.02409822 51.42823792 409.03663635 C49.27173328 409.02772399 47.11523304 409.01764685 44.95874023 409.00622559 C44.00090134 409.01596909 43.04306244 409.02571259 42.05619812 409.03575134 C31.01914831 408.91991549 21.89807608 405.12459706 13.91943359 397.50793457 C5.47537761 388.66257692 2.50584913 379.46043318 2.38818359 367.35559082 C3.08594243 363.61539824 3.79539813 362.70948882 6.91943359 360.50793457 C10.40494996 359.9439973 13.84998727 360.04351922 17.37255859 360.11730957 C18.38791687 360.12296936 19.40327515 360.12862915 20.44940186 360.13446045 C23.6898936 360.15683704 26.92927649 360.20703702 30.16943359 360.25793457 C32.36733428 360.27799786 34.56525232 360.29624892 36.76318359 360.31262207 C42.1489781 360.35670586 47.53412662 360.42363084 52.91943359 360.50793457 C53.07676468 359.95219757 53.23409576 359.39646057 53.39619446 358.82388306 C55.6243671 351.16320273 58.30262813 343.6839722 61.02490234 336.18762207 C61.51409634 334.83436477 62.00304985 333.48102051 62.49177551 332.12759399 C63.7667268 328.59886403 65.04489966 325.07130975 66.3237915 321.54400635 C67.6330448 317.93113663 68.93918646 314.31714241 70.24560547 310.70324707 C72.80053724 303.63705076 75.35888003 296.57209595 77.91943359 289.50793457 C76.79127731 289.50428894 75.66312103 289.50064331 74.5007782 289.49688721 C63.8348294 289.45984061 53.16916674 289.40196262 42.50343609 289.32403183 C37.02091516 289.28463317 31.53855302 289.25240736 26.0559082 289.23693848 C20.75833746 289.22172178 15.46120348 289.18718737 10.1638279 289.13962555 C8.1494204 289.12486335 6.13495053 289.11689654 4.12048912 289.11605072 C-10.78948943 289.10350176 -22.76280776 288.31222213 -34.08056641 277.50793457 C-45.86736398 265.16097236 -45.66459377 251.79714391 -45.59814453 235.68762207 C-45.60357082 233.4772699 -45.61069632 231.26692135 -45.61938477 229.05657959 C-45.63756053 223.07725337 -45.63057421 217.09820442 -45.61786842 211.1188736 C-45.60771101 204.84865088 -45.61714171 198.57845123 -45.62341309 192.30822754 C-45.63114648 181.10684555 -45.6187494 169.90556491 -45.59837574 158.70420718 C-45.58050689 148.56645516 -45.58361167 138.42888641 -45.60205078 128.2911377 C-45.62350001 116.49306282 -45.63140199 104.69507711 -45.61960173 92.89698219 C-45.61337944 86.66095203 -45.61249643 80.42504785 -45.62574768 74.18902588 C-45.63733882 68.32509606 -45.62922054 62.46151087 -45.60617065 56.5976181 C-45.60090103 54.45108359 -45.60236724 52.30451985 -45.61122131 50.15799713 C-45.66772415 35.06319915 -45.02994393 22.97767855 -34.08056641 11.50793457 C-24.06751614 1.94916258 -13.50028556 -0.09443548 0 0 Z M-23.33056641 25.94543457 C-28.64824047 32.47103982 -29.20697322 39.3756115 -29.20082092 47.60739136 C-29.20167535 48.2985547 -29.20252977 48.98971805 -29.20341009 49.70182574 C-29.2050499 52.00489797 -29.19956819 54.30789646 -29.1940918 56.61096191 C-29.19380958 58.26699827 -29.19396834 59.92303476 -29.1945343 61.57907104 C-29.19482091 66.06618694 -29.18894618 70.55327605 -29.18196034 75.04038572 C-29.17570414 79.73290591 -29.17512121 84.42542673 -29.17393494 89.11795044 C-29.17082831 98.00008114 -29.16262392 106.88219951 -29.15258545 115.76432478 C-29.14140357 125.87793366 -29.13590863 135.99154314 -29.13089001 146.10515666 C-29.12044076 166.90609104 -29.10210357 187.70700852 -29.08056641 208.50793457 C-18.52056641 208.50793457 -7.96056641 208.50793457 2.91943359 208.50793457 C2.93401611 203.31325439 2.94859863 198.11857422 2.96362305 192.76647949 C3.0138686 175.63936746 3.08029391 158.51234677 3.15514851 141.38532543 C3.20015299 130.99708761 3.23955685 120.60888443 3.26586914 110.22058105 C3.28881162 101.16827824 3.32216741 92.11608462 3.36813515 83.06386834 C3.39211813 78.26883678 3.41081357 73.4739137 3.4170475 68.67882347 C3.4230755 64.16852415 3.44299196 59.65850259 3.47370911 55.14830589 C3.48252615 53.49026413 3.48620437 51.83218612 3.48444176 50.17412186 C3.48279817 47.91525129 3.49940839 45.65723678 3.52070618 43.39848328 C3.52761962 41.50005063 3.52761962 41.50005063 3.53467274 39.5632658 C3.91943359 36.50793457 3.91943359 36.50793457 5.13201207 34.84057158 C7.50376554 33.07227775 8.95775745 33.13201138 11.90293884 33.13041115 C12.93814698 33.12258791 13.97335512 33.11476466 15.0399332 33.10670435 C16.75133692 33.1167426 16.75133692 33.1167426 18.49731445 33.12698364 C19.70649253 33.12230367 20.9156706 33.1176237 22.16149044 33.11280191 C25.52396318 33.10288272 28.88593559 33.10648422 32.24837828 33.11576056 C35.87215647 33.12253072 39.49589002 33.11207997 43.11965942 33.1038208 C50.22101366 33.09045946 57.32227295 33.09337186 64.42363095 33.10205872 C70.19346984 33.10882544 75.96328206 33.10975638 81.73312378 33.10648727 C82.55335807 33.10602758 83.37359236 33.10556788 84.21868223 33.10509425 C85.88481244 33.1041351 87.55094265 33.10316246 89.21707284 33.10217647 C104.8516577 33.09361555 120.48618984 33.10346771 136.12076604 33.11957757 C149.54489257 33.1329814 162.96894128 33.1306535 176.39306641 33.11682129 C191.97053211 33.10077786 207.54795158 33.09443958 223.12542439 33.10365808 C224.78553072 33.10461376 226.44563706 33.10555687 228.10574341 33.10648727 C229.33104772 33.10718151 229.33104772 33.10718151 230.58110565 33.10788978 C236.34606371 33.11048339 242.11099252 33.1061007 247.87594604 33.09904861 C254.89857718 33.09064714 261.92110769 33.09288514 268.94372725 33.10889085 C272.52889786 33.1167919 276.1139005 33.11983419 279.69906998 33.10994339 C283.5799932 33.09939835 287.4606395 33.11196306 291.34155273 33.12698364 C292.48248855 33.12029148 293.62342436 33.11359931 294.79893398 33.10670435 C295.83414212 33.1145276 296.86935026 33.12235084 297.93592834 33.13041115 C299.28054689 33.13114173 299.28054689 33.13114173 300.65232944 33.13188708 C303.38305458 33.58483598 304.26914836 34.32371961 305.91943359 36.50793457 C306.30419445 38.56375408 306.30419445 38.56375408 306.31816101 40.96879578 C306.33696823 42.33807472 306.33696823 42.33807472 306.3561554 43.73501587 C306.35400276 45.23365677 306.35400276 45.23365677 306.35180664 46.76257324 C306.36199829 47.81639694 306.37218994 48.87022064 306.38269043 49.95597839 C306.41293163 53.44600667 306.42210352 56.93576099 306.43115234 60.42590332 C306.44799074 62.84301168 306.46613983 65.26011124 306.48554993 67.67720032 C306.53314693 74.04431407 306.56289363 80.41139214 306.58898926 86.77862549 C306.61874582 93.27375334 306.66529295 99.76875813 306.71044922 106.26379395 C306.79659275 119.01177658 306.8638889 131.75978447 306.91943359 144.50793457 C301.63943359 144.50793457 296.35943359 144.50793457 290.91943359 144.50793457 C290.91943359 112.82793457 290.91943359 81.14793457 290.91943359 48.50793457 C201.15943359 48.50793457 111.39943359 48.50793457 18.91943359 48.50793457 C18.91943359 64.34793457 18.91943359 80.18793457 18.91943359 96.50793457 C45.31943359 96.50793457 71.71943359 96.50793457 98.91943359 96.50793457 C98.91943359 101.78793457 98.91943359 107.06793457 98.91943359 112.50793457 C72.51943359 112.50793457 46.11943359 112.50793457 18.91943359 112.50793457 C18.91943359 144.18793457 18.91943359 175.86793457 18.91943359 208.50793457 C72.37943359 208.50793457 125.83943359 208.50793457 180.91943359 208.50793457 C180.25943359 205.86793457 179.59943359 203.22793457 178.91943359 200.50793457 C178.48193359 196.82043457 178.48193359 196.82043457 178.91943359 193.50793457 C182.89785583 188.68099572 187.89616793 185.92468179 193.29443359 182.88293457 C194.11943359 182.40598145 194.94443359 181.92902832 195.79443359 181.43762207 C207.92138672 174.50793457 207.92138672 174.50793457 213.54443359 174.50793457 C218.51323517 175.98017208 220.9466247 179.34089591 224.20849609 183.25402832 C228.60131465 188.63932627 228.60131465 188.63932627 234.87255859 190.74230957 C237.68719319 190.2155063 240.23043875 189.48301737 242.91943359 188.50793457 C244.25022586 188.1645968 245.58322215 187.82953661 246.91943359 187.50793457 C247.07500732 186.82690674 247.23058105 186.14587891 247.39086914 185.44421387 C248.10871925 182.35600952 248.8573864 179.27609188 249.60693359 176.19543457 C249.85121094 175.1235791 250.09548828 174.05172363 250.34716797 172.9473877 C250.72905273 171.40534668 250.72905273 171.40534668 251.11865234 169.83215332 C251.34383545 168.88428955 251.56901855 167.93642578 251.80102539 166.95983887 C253.30225296 163.66867352 254.5897585 162.89013328 257.91943359 161.50793457 C260.58521633 161.2212331 263.00864038 161.08648683 265.66943359 161.10949707 C266.40516602 161.10662689 267.14089844 161.10375671 267.89892578 161.10079956 C269.44873834 161.09876531 270.99857694 161.10425042 272.54833984 161.11682129 C274.91220852 161.13288547 277.2743677 161.11695237 279.63818359 161.09777832 C281.14860401 161.09976087 282.65902337 161.10360478 284.16943359 161.10949707 C284.87165039 161.10342438 285.57386719 161.09735168 286.29736328 161.09109497 C290.65375072 161.15311959 293.56359326 161.65718344 296.91943359 164.50793457 C298.0378418 166.95983887 298.0378418 166.95983887 298.72021484 169.83215332 C299.10209961 171.37419434 299.10209961 171.37419434 299.49169922 172.9473877 C299.73597656 174.01924316 299.98025391 175.09109863 300.23193359 176.19543457 C300.49554688 177.2788916 300.75916016 178.36234863 301.03076172 179.4786377 C301.67832555 182.15131024 302.30700915 184.82703149 302.91943359 187.50793457 C304.83288686 188.04045223 306.7503631 188.5585294 308.66943359 189.07043457 C309.73677734 189.36047363 310.80412109 189.6505127 311.90380859 189.94934082 C315.54777 190.63835116 315.54777 190.63835116 318.91943359 189.50793457 C321.44499985 187.34640016 321.44499985 187.34640016 323.91943359 184.69543457 C324.76505859 183.82273926 325.61068359 182.95004395 326.48193359 182.05090332 C327.97015864 180.49828392 329.43522749 178.9224669 330.85693359 177.30871582 C333.37293522 175.11197955 335.75527548 174.48597154 338.91943359 173.50793457 C338.96622252 156.32233417 339.00145616 139.13675375 339.02305794 121.95110416 C339.03335608 113.97092111 339.04738837 105.99077771 339.0703125 98.01062012 C339.09029124 91.05245115 339.10316065 84.09431091 339.10761058 77.13611406 C339.11021039 73.45422745 339.11629039 69.77242301 339.13089371 66.09056282 C339.14709074 61.97322114 339.14741041 57.85602093 339.14648438 53.73864746 C339.15367493 52.52735672 339.16086548 51.31606598 339.16827393 50.06806946 C339.14619361 40.98116963 338.89624577 32.77703046 332.91943359 25.50793457 C325.85543605 18.49439416 319.15892971 16.38656406 309.20872784 16.37930012 C308.08764525 16.37607567 306.96656267 16.37285123 305.81150788 16.36952907 C304.59002055 16.37107767 303.36853322 16.37262627 302.11003113 16.3742218 C300.80451792 16.37195625 299.4990047 16.36969069 298.15393049 16.36735648 C294.53635213 16.36124595 290.91879691 16.36137119 287.30121458 16.36255085 C283.39722232 16.36275505 279.49323746 16.35723431 275.58924866 16.35249329 C267.94288809 16.34419029 260.29653523 16.3414386 252.65017053 16.34088091 C246.43423745 16.34040558 240.21830692 16.33835002 234.00237465 16.33518028 C216.37540413 16.32637469 198.74843969 16.32176076 181.12146696 16.32251076 C179.69634448 16.32257069 179.69634448 16.32257069 178.24243164 16.32263184 C177.29118872 16.32267272 176.33994579 16.3227136 175.35987733 16.32275572 C159.94366277 16.32316217 144.52747264 16.31359262 129.11126515 16.29949347 C113.27842625 16.28512764 97.44559927 16.2782234 81.61275369 16.27908725 C72.72526125 16.27941914 63.83779441 16.27667526 54.95030785 16.26590919 C47.38337173 16.25680149 39.81647284 16.25463118 32.24953362 16.26141862 C28.39021808 16.26468244 24.53097393 16.26474548 20.67166519 16.25606537 C16.48431849 16.24674447 12.29713693 16.25297999 8.10978699 16.26069641 C6.28759424 16.25298107 6.28759424 16.25298107 4.42858952 16.24510986 C-6.83113069 16.2909783 -15.4504962 17.21089892 -23.33056641 25.94543457 Z M266.91943359 177.50793457 C264.73972255 182.44861294 263.65706989 187.54897865 262.50732422 192.80090332 C261.61637678 196.59896609 261.01348819 199.08037812 257.91943359 201.50793457 C255.57861328 202.38342285 255.57861328 202.38342285 252.84130859 203.07824707 C251.84486328 203.33477051 250.84841797 203.59129395 249.82177734 203.85559082 C248.78150391 204.11211426 247.74123047 204.3686377 246.66943359 204.63293457 C245.64462891 204.89719238 244.61982422 205.1614502 243.56396484 205.43371582 C240.68975834 206.16243999 237.81018819 206.84824955 234.91943359 207.50793457 C234.22011719 207.67519043 233.52080078 207.84244629 232.80029297 208.01477051 C229.90350788 208.59381368 228.13536933 208.59450788 225.37646484 207.48840332 C222.12359054 204.86645217 219.38318254 201.93401632 216.60693359 198.82043457 C216.05714844 198.21393066 215.50736328 197.60742676 214.94091797 196.98254395 C213.59485919 195.49602686 212.25637104 194.00266049 210.91943359 192.50793457 C208.97829426 193.43787574 207.0416385 194.37717987 205.10693359 195.32043457 C204.02798828 195.84250488 202.94904297 196.3645752 201.83740234 196.90246582 C199.35363657 198.26903574 197.7394958 199.38133558 195.91943359 201.50793457 C196.28037109 202.57012207 196.64130859 203.63230957 197.01318359 204.72668457 C197.48255203 206.15356462 197.95126718 207.58065968 198.41943359 209.00793457 C198.65791016 209.70402832 198.89638672 210.40012207 199.14208984 211.11730957 C201.06090599 217.03822796 201.93930497 222.44832043 199.91943359 228.50793457 C198.60697115 229.21480411 197.27040191 229.87777044 195.91943359 230.50793457 C194.24107152 231.88377572 194.24107152 231.88377572 192.68505859 233.47668457 C192.11142578 234.04773926 191.53779297 234.61879395 190.94677734 235.20715332 C190.36025391 235.80141113 189.77373047 236.39566895 189.16943359 237.00793457 C188.56744141 237.60219238 187.96544922 238.1964502 187.34521484 238.80871582 C186.4925 239.66529785 186.4925 239.66529785 185.62255859 240.53918457 C185.10338867 241.06061035 184.58421875 241.58203613 184.04931641 242.1192627 C182.70905812 243.46811726 182.70905812 243.46811726 182.91943359 245.50793457 C175.92046782 247.84092316 169.69778071 246.18123477 162.91943359 244.00793457 C162.14470703 243.76945801 161.36998047 243.53098145 160.57177734 243.28527832 C158.68455602 242.7028026 156.80152408 242.10678154 154.91943359 241.50793457 C152.27943359 246.12793457 149.63943359 250.74793457 146.91943359 255.50793457 C151.24053977 260.70988176 151.24053977 260.70988176 156.04443359 265.07043457 C161.53366376 269.81254834 161.53366376 269.81254834 162.91943359 273.50793457 C162.34682889 279.90059603 160.64338808 286.05711107 159.04443359 292.25793457 C158.78791016 293.29820801 158.53138672 294.33848145 158.26708984 295.41027832 C158.01056641 296.40672363 157.75404297 297.40316895 157.48974609 298.42980957 C157.2604541 299.33312012 157.03116211 300.23643066 156.79492188 301.16711426 C155.8369159 303.7285647 155.09849771 304.87552367 152.91943359 306.50793457 C150.75878906 307.29162598 150.75878906 307.29162598 148.28662109 307.85949707 C147.39845703 308.07090332 146.51029297 308.28230957 145.59521484 308.50012207 C144.20882812 308.81336426 144.20882812 308.81336426 142.79443359 309.13293457 C140.95781483 309.55970076 139.12183717 309.98923869 137.28662109 310.42199707 C136.47306152 310.60713867 135.65950195 310.79228027 134.82128906 310.98303223 C132.92474182 311.33812694 132.92474182 311.33812694 131.91943359 312.50793457 C131.84623738 315.20448311 131.82700822 317.87484915 131.85693359 320.57043457 C131.86144531 321.32904785 131.86595703 322.08766113 131.87060547 322.8692627 C131.88242679 324.74885328 131.90036282 326.62840356 131.91943359 328.50793457 C137.07619599 330.30680517 142.30689693 331.66612562 147.61669922 332.92004395 C151.26207867 333.84148427 153.55701382 334.5637374 155.91943359 337.50793457 C156.68725586 339.5892334 156.68725586 339.5892334 157.23583984 341.96496582 C157.54618164 343.26337402 157.54618164 343.26337402 157.86279297 344.5880127 C158.06710938 345.48971191 158.27142578 346.39141113 158.48193359 347.32043457 C158.8977518 349.09828268 159.31567143 350.87564079 159.73583984 352.65246582 C159.93338867 353.49293457 160.1309375 354.33340332 160.33447266 355.19934082 C160.8248573 357.1346819 161.43131995 359.04009953 162.06396484 360.93371582 C163.31046931 364.68461282 163.09592061 366.71703196 161.91943359 370.50793457 C159.52826071 373.49690068 156.79595601 375.99224801 153.91943359 378.50793457 C152.88689453 379.41865723 152.88689453 379.41865723 151.83349609 380.34777832 C150.21219508 381.7540088 148.56817699 383.13398174 146.91943359 384.50793457 C147.84937476 386.44907391 148.78867889 388.38572967 149.73193359 390.32043457 C150.51503906 391.93885254 150.51503906 391.93885254 151.31396484 393.58996582 C152.68053476 396.07373159 153.7928346 397.68787237 155.91943359 399.50793457 C156.98162109 399.14699707 158.04380859 398.78605957 159.13818359 398.41418457 C160.56506364 397.94481613 161.9921587 397.47610098 163.41943359 397.00793457 C164.11552734 396.76945801 164.81162109 396.53098145 165.52880859 396.28527832 C171.44972698 394.36646218 176.85981945 393.48806319 182.91943359 395.50793457 C183.62630313 396.82039702 184.28926946 398.15696626 184.91943359 399.50793457 C186.29527475 401.18629664 186.29527475 401.18629664 187.88818359 402.74230957 C188.45923828 403.31594238 189.03029297 403.8895752 189.61865234 404.48059082 C190.21291016 405.06711426 190.80716797 405.6536377 191.41943359 406.25793457 C192.01369141 406.85992676 192.60794922 407.46191895 193.22021484 408.08215332 C193.79126953 408.65062988 194.36232422 409.21910645 194.95068359 409.80480957 C195.73282227 410.58356445 195.73282227 410.58356445 196.53076172 411.37805176 C197.87961628 412.71831004 197.87961628 412.71831004 199.91943359 412.50793457 C202.25242219 419.50690035 200.5927338 425.72958745 198.41943359 432.50793457 C198.18095703 433.28266113 197.94248047 434.0573877 197.69677734 434.85559082 C197.11430163 436.74281215 196.51828057 438.62584408 195.91943359 440.50793457 C200.53943359 443.14793457 205.15943359 445.78793457 209.91943359 448.50793457 C215.12138078 444.18682839 215.12138078 444.18682839 219.48193359 439.38293457 C224.22404737 433.89370441 224.22404737 433.89370441 227.91943359 432.50793457 C234.31209506 433.08053927 240.4686101 434.78398008 246.66943359 436.38293457 C247.70970703 436.63945801 248.74998047 436.89598145 249.82177734 437.16027832 C250.81822266 437.41680176 251.81466797 437.6733252 252.84130859 437.93762207 C253.74461914 438.16691406 254.64792969 438.39620605 255.57861328 438.63244629 C258.14006373 439.59045226 259.28702269 440.32887046 260.91943359 442.50793457 C261.703125 444.6685791 261.703125 444.6685791 262.27099609 447.14074707 C262.48240234 448.02891113 262.69380859 448.9170752 262.91162109 449.83215332 C263.22486328 451.21854004 263.22486328 451.21854004 263.54443359 452.63293457 C263.97119978 454.46955333 264.40073772 456.305531 264.83349609 458.14074707 C265.0186377 458.95430664 265.2037793 459.76786621 265.39453125 460.6060791 C265.74962597 462.50262634 265.74962597 462.50262634 266.91943359 463.50793457 C272.44025245 464.57418714 277.41856769 464.56129187 282.91943359 463.50793457 C285.09914464 458.5672562 286.1817973 453.46689049 287.33154297 448.21496582 C288.2224904 444.41690305 288.825379 441.93549102 291.91943359 439.50793457 C294.26025391 438.63244629 294.26025391 438.63244629 296.99755859 437.93762207 C298.49222656 437.55283691 298.49222656 437.55283691 300.01708984 437.16027832 C301.5775 436.77549316 301.5775 436.77549316 303.16943359 436.38293457 C304.19423828 436.11867676 305.21904297 435.85441895 306.27490234 435.58215332 C309.14910884 434.85342915 312.028679 434.16761959 314.91943359 433.50793457 C315.61875 433.34067871 316.31806641 433.17342285 317.03857422 433.00109863 C319.93535931 432.42205546 321.70349786 432.42136126 324.46240234 433.52746582 C327.71527665 436.14941697 330.45568464 439.08185282 333.23193359 442.19543457 C333.78171875 442.80193848 334.33150391 443.40844238 334.89794922 444.0333252 C336.244008 445.51984228 337.58249615 447.01320866 338.91943359 448.50793457 C340.86057293 447.5779934 342.79722869 446.63868927 344.73193359 445.69543457 C345.81087891 445.17336426 346.88982422 444.65129395 348.00146484 444.11340332 C350.48523061 442.7468334 352.09937139 441.63453357 353.91943359 439.50793457 C353.55849609 438.44574707 353.19755859 437.38355957 352.82568359 436.28918457 C352.35631516 434.86230452 351.8876 433.43520946 351.41943359 432.00793457 C351.18095703 431.31184082 350.94248047 430.61574707 350.69677734 429.89855957 C348.7779612 423.97764118 347.89956221 418.56754871 349.91943359 412.50793457 C351.23229304 411.80180264 352.56867824 411.13855505 353.91943359 410.50793457 C355.54977258 409.14897143 355.54977258 409.14897143 357.04833984 407.57434082 C357.88848633 406.72452637 357.88848633 406.72452637 358.74560547 405.85754395 C359.31859375 405.26779785 359.89158203 404.67805176 360.48193359 404.07043457 C361.05878906 403.48455566 361.63564453 402.89867676 362.22998047 402.29504395 C363.30530378 401.2023567 364.37855134 400.10761973 365.44897461 399.01013184 C365.93422607 398.51440674 366.41947754 398.01868164 366.91943359 397.50793457 C367.4014624 396.95677979 367.88349121 396.405625 368.38012695 395.83776855 C370.63128096 393.89295716 372.81019917 394.13594478 375.67724609 394.24621582 C379.56750239 394.70030497 383.19991076 395.81536659 386.91943359 397.00793457 C387.69416016 397.24641113 388.46888672 397.4848877 389.26708984 397.73059082 C391.15431117 398.31306654 393.03734311 398.9090876 394.91943359 399.50793457 C397.55943359 394.88793457 400.19943359 390.26793457 402.91943359 385.50793457 C398.59832742 380.30598738 398.59832742 380.30598738 393.79443359 375.94543457 C388.30520343 371.2033208 388.30520343 371.2033208 386.91943359 367.50793457 C387.4920383 361.11527311 389.19547911 354.95875807 390.79443359 348.75793457 C391.17921875 347.19752441 391.17921875 347.19752441 391.57177734 345.60559082 C391.9565625 344.11092285 391.9565625 344.11092285 392.34912109 342.58605957 C392.57841309 341.68274902 392.80770508 340.77943848 393.04394531 339.84875488 C394.00195129 337.28730444 394.74036948 336.14034548 396.91943359 334.50793457 C399.08007812 333.72424316 399.08007812 333.72424316 401.55224609 333.15637207 C402.44041016 332.94496582 403.32857422 332.73355957 404.24365234 332.51574707 C405.63003906 332.20250488 405.63003906 332.20250488 407.04443359 331.88293457 C408.88105236 331.45616839 410.71703002 331.02663045 412.55224609 330.59387207 C413.36580566 330.40873047 414.17936523 330.22358887 415.01757812 330.03283691 C416.91412537 329.6777422 416.91412537 329.6777422 417.91943359 328.50793457 C417.99262981 325.81138603 418.01185897 323.14101999 417.98193359 320.44543457 C417.97516602 319.30751465 417.97516602 319.30751465 417.96826172 318.14660645 C417.95644039 316.26701586 417.93850437 314.38746558 417.91943359 312.50793457 C412.97875523 310.32822353 407.87838951 309.24557087 402.62646484 308.0958252 C398.82810379 307.20480779 396.34882478 306.60043716 393.91943359 303.50793457 C393.04394531 301.1829834 393.04394531 301.1829834 392.34912109 298.46496582 C392.09259766 297.47303223 391.83607422 296.48109863 391.57177734 295.45910645 C391.18699219 293.90546387 391.18699219 293.90546387 390.79443359 292.32043457 C390.53017578 291.30400879 390.26591797 290.28758301 389.99365234 289.24035645 C386.13796031 274.08181084 386.13796031 274.08181084 388.03662109 270.25793457 C388.61669922 269.68043457 389.19677734 269.10293457 389.79443359 268.50793457 C390.43251953 267.85824707 391.07060547 267.20855957 391.72802734 266.53918457 C395.40544816 263.13052357 399.10343985 259.76148026 402.91943359 256.50793457 C401.98949242 254.56679523 401.0501883 252.63013947 400.10693359 250.69543457 C399.58486328 249.61648926 399.06279297 248.53754395 398.52490234 247.42590332 C397.15833242 244.94213755 396.04603259 243.32799677 393.91943359 241.50793457 C392.85724609 241.86887207 391.79505859 242.22980957 390.70068359 242.60168457 C389.27380355 243.07105301 387.84670849 243.53976816 386.41943359 244.00793457 C385.72333984 244.24641113 385.02724609 244.4848877 384.31005859 244.73059082 C378.3891402 246.64940696 372.97904774 247.52780595 366.91943359 245.50793457 C366.21256405 244.19547212 365.54959773 242.85890288 364.91943359 241.50793457 C363.54359244 239.8295725 363.54359244 239.8295725 361.95068359 238.27355957 C361.37962891 237.69992676 360.80857422 237.12629395 360.22021484 236.53527832 C359.62595703 235.94875488 359.03169922 235.36223145 358.41943359 234.75793457 C357.82517578 234.15594238 357.23091797 233.5539502 356.61865234 232.93371582 C356.04759766 232.36523926 355.47654297 231.7967627 354.88818359 231.21105957 C354.36675781 230.69188965 353.84533203 230.17271973 353.30810547 229.63781738 C351.95925091 228.2975591 351.95925091 228.2975591 349.91943359 228.50793457 C347.586445 221.50896879 349.24613339 215.28628169 351.41943359 208.50793457 C351.65791016 207.73320801 351.89638672 206.95848145 352.14208984 206.16027832 C352.72456556 204.27305699 353.32058662 202.39002506 353.91943359 200.50793457 C349.29943359 197.86793457 344.67943359 195.22793457 339.91943359 192.50793457 C335.29083954 196.2863787 331.36287169 200.13367667 327.59521484 204.77355957 C325.69817054 206.73693409 324.53161912 207.68447854 321.91943359 208.50793457 C315.5420345 208.09489059 309.3388299 206.22378519 303.16943359 204.63293457 C302.12916016 204.37641113 301.08888672 204.1198877 300.01708984 203.85559082 C299.02064453 203.59906738 298.02419922 203.34254395 296.99755859 203.07824707 C296.09424805 202.84895508 295.1909375 202.61966309 294.26025391 202.38342285 C291.69880346 201.42541688 290.5518445 200.68699868 288.91943359 198.50793457 C288.13574219 196.34729004 288.13574219 196.34729004 287.56787109 193.87512207 C287.35646484 192.98695801 287.14505859 192.09879395 286.92724609 191.18371582 C286.61400391 189.7973291 286.61400391 189.7973291 286.29443359 188.38293457 C285.86766741 186.54631581 285.43812947 184.71033814 285.00537109 182.87512207 C284.82022949 182.0615625 284.63508789 181.24800293 284.44433594 180.40979004 C284.08924122 178.5132428 284.08924122 178.5132428 282.91943359 177.50793457 C277.39861474 176.441682 272.4202995 176.45457727 266.91943359 177.50793457 Z M-29.08056641 224.50793457 C-30.5645205 245.13246715 -30.5645205 245.13246715 -23.08056641 263.50793457 C-15.85515088 270.68173999 -9.04522192 272.63704858 1.10775757 272.62818909 C2.32764374 272.62956375 3.54752991 272.63093842 4.80438232 272.63235474 C6.14270044 272.62881635 7.48101831 272.62518155 8.81933594 272.62145996 C10.2389221 272.62117767 11.65850841 272.62133665 13.07809448 272.62190247 C16.92060471 272.62218879 20.76308357 272.6163187 24.60558653 272.60932851 C28.62545328 272.60306753 32.64532078 272.602489 36.66519165 272.6013031 C44.27234853 272.59819788 51.87949099 272.58999539 59.48664153 272.57995361 C68.1492499 272.56876736 76.81185896 272.56327569 85.47447276 272.55825818 C103.28946787 272.5478121 121.10444957 272.53022832 138.91943359 272.50793457 C138.14083984 271.55789551 137.36224609 270.60785645 136.56005859 269.62902832 C136.12209961 269.09463135 135.68414062 268.56023437 135.23291016 268.00964355 C133.84559817 266.35241306 133.84559817 266.35241306 131.66943359 264.57043457 C129.13379727 261.58200605 129.09306621 259.40282989 128.91943359 255.50793457 C129.74393898 252.72935142 131.02939351 250.29325889 132.41943359 247.75793457 C132.78311035 247.06345215 133.14678711 246.36896973 133.52148438 245.65344238 C136.25153119 240.52052761 139.24526241 235.57808863 142.47412109 230.74230957 C144.12591308 228.27878797 144.12591308 228.27878797 145.91943359 224.50793457 C88.16943359 224.50793457 30.41943359 224.50793457 -29.08056641 224.50793457 Z M158.91943359 224.50793457 C162.08509933 226.61837839 164.43140775 227.26345534 168.10693359 228.13293457 C169.19361328 228.3933252 170.28029297 228.65371582 171.39990234 228.92199707 C172.23134766 229.11535645 173.06279297 229.30871582 173.91943359 229.50793457 C175.23943359 227.85793457 176.55943359 226.20793457 177.91943359 224.50793457 C171.64943359 224.50793457 165.37943359 224.50793457 158.91943359 224.50793457 Z M96.91943359 288.50793457 C86.84126722 315.81334909 86.84126722 315.81334909 76.83703613 343.14590454 C76.30853187 344.59587264 75.77947884 346.04564083 75.24987793 347.49520874 C74.51570459 349.5053721 73.78363866 351.51628931 73.05224609 353.52746582 C72.63861816 354.66288818 72.22499023 355.79831055 71.79882812 356.96813965 C70.86490217 359.21747274 70.86490217 359.21747274 70.91943359 360.50793457 C95.33943359 360.50793457 119.75943359 360.50793457 144.91943359 360.50793457 C143.92943359 356.54793457 142.93943359 352.58793457 141.91943359 348.50793457 C140.29392578 348.13281738 138.66841797 347.7577002 136.99365234 347.37121582 C134.86449117 346.85533976 132.73559845 346.33835481 130.60693359 345.82043457 C129.53507812 345.57615723 128.46322266 345.33187988 127.35888672 345.0802002 C126.33085937 344.82561035 125.30283203 344.57102051 124.24365234 344.30871582 C122.82185669 343.97094116 122.82185669 343.97094116 121.37133789 343.62634277 C118.08017254 342.1251152 117.30163231 340.83760966 115.91943359 337.50793457 C115.63273212 334.84215183 115.49798585 332.41872778 115.52099609 329.75793457 C115.51812592 329.02220215 115.51525574 328.28646973 115.51229858 327.52844238 C115.51026433 325.97862983 115.51574944 324.42879123 115.52832031 322.87902832 C115.54438449 320.51515965 115.52845139 318.15300046 115.50927734 315.78918457 C115.51125989 314.27876415 115.51510381 312.76834479 115.52099609 311.25793457 C115.51188705 310.20460938 115.51188705 310.20460938 115.50259399 309.13000488 C115.56461862 304.77361744 116.06868246 301.8637749 118.91943359 298.50793457 C121.37133789 297.38952637 121.37133789 297.38952637 124.24365234 296.70715332 C125.27167969 296.45256348 126.29970703 296.19797363 127.35888672 295.93566895 C128.96666992 295.56925293 128.96666992 295.56925293 130.60693359 295.19543457 C131.69039062 294.93182129 132.77384766 294.66820801 133.89013672 294.39660645 C136.56280926 293.74904261 139.23853051 293.12035902 141.91943359 292.50793457 C141.91943359 291.18793457 141.91943359 289.86793457 141.91943359 288.50793457 C127.06943359 288.50793457 112.21943359 288.50793457 96.91943359 288.50793457 Z M20.91943359 376.50793457 C24.2732203 383.21550799 27.89057721 387.39758123 34.54443359 390.88293457 C40.29606192 392.39652097 45.77505296 392.64794874 51.67871094 392.62145996 C52.96749649 392.621679 52.96749649 392.621679 54.28231812 392.62190247 C57.10669528 392.62120886 59.93100553 392.61344237 62.75537109 392.60559082 C64.71977706 392.60372468 66.68418349 392.6023017 68.64859009 392.6013031 C73.80736588 392.59749336 78.96611331 392.58767628 84.12487793 392.57659912 C89.39363217 392.56635178 94.662391 392.56179837 99.93115234 392.5567627 C110.26059185 392.5460526 120.59001036 392.52899475 130.91943359 392.50793457 C130.56880859 391.53855957 130.21818359 390.56918457 129.85693359 389.57043457 C128.91943359 385.50793457 128.91943359 385.50793457 129.91943359 376.50793457 C93.94943359 376.50793457 57.97943359 376.50793457 20.91943359 376.50793457 Z " fill="#000000" transform="translate(61.08056640625,15.4920654296875)"/>
<path d="M0 0 C2.44225447 1.66159248 4.74768159 3.38773224 7.0390625 5.25 C7.87179687 5.87648438 8.70453125 6.50296875 9.5625 7.1484375 C18.76036546 14.95356624 26.15845232 28.59050337 27.26025391 40.67626953 C27.73579386 51.65011278 27.93683722 62.18235196 23.0390625 72.25 C22.58015625 73.21164062 22.12125 74.17328125 21.6484375 75.1640625 C13.91897924 90.25684678 1.74462952 98.78970206 -14.12109375 104.359375 C-26.20509403 107.16217466 -40.75813646 106.70001132 -51.9609375 101.25 C-52.92257812 100.79109375 -53.88421875 100.3321875 -54.875 99.859375 C-69.96778428 92.12991674 -78.50063956 79.95556702 -84.0703125 64.08984375 C-86.87311216 52.00584347 -86.41094882 37.45280104 -80.9609375 26.25 C-80.50203125 25.28835938 -80.043125 24.32671875 -79.5703125 23.3359375 C-71.84651061 8.25419803 -59.66331626 -0.32293942 -43.7890625 -5.85546875 C-29.15360965 -9.27538579 -12.98077044 -7.67201208 0 0 Z M-60.7734375 25.5 C-67.86771815 35.31650462 -69.11450278 45.46460626 -67.9609375 57.25 C-65.70335841 68.03027414 -59.21637602 76.36109065 -50.38671875 82.7421875 C-40.41077851 88.94301348 -29.1889132 89.97308289 -17.80859375 87.58984375 C-6.62384645 83.96617387 1.84161302 76.06122995 7.359375 65.79296875 C11.41050101 56.34506299 11.6392523 45.07439536 8.4765625 35.3125 C3.89997856 24.63913815 -4.35007565 16.38908394 -15.0234375 11.8125 C-32.44033139 6.16971951 -49.16703539 11.72509814 -60.7734375 25.5 Z " fill="#000000" transform="translate(364.9609375,286.75)"/>
<path d="M0 0 C2.88959254 1.30906768 4.95569234 2.70665595 7.19213867 4.94921875 C7.78923141 5.54323486 8.38632416 6.13725098 9.00151062 6.74926758 C9.95015739 7.70869263 9.95015739 7.70869263 10.91796875 8.6875 C11.90474358 9.67496216 11.90474358 9.67496216 12.91145325 10.68237305 C14.29807992 12.07201594 15.68228022 13.46408362 17.06420898 14.85839844 C19.18485617 16.99733337 21.31342786 19.12812668 23.44335938 21.2578125 C24.789536 22.60890339 26.13525506 23.96045036 27.48046875 25.3125 C28.11897263 25.9521167 28.7574765 26.5917334 29.41532898 27.25073242 C30.00296524 27.84474854 30.5906015 28.43876465 31.19604492 29.05078125 C31.71470627 29.57325439 32.23336761 30.09572754 32.76774597 30.6340332 C35.25203277 33.38789174 35.53349855 36.16692304 35.44946289 39.82470703 C33.68120631 48.38264624 20.67810712 57.42833041 14.5625 63.5 C13.3415631 64.71591114 12.12085808 65.93205516 10.90039062 67.1484375 C7.93625987 70.10164966 4.96901042 73.05169398 2 76 C-1.63303084 74.30413874 -3.94549046 72.26199512 -6.75 69.375 C-7.54921875 68.55773437 -8.3484375 67.74046875 -9.171875 66.8984375 C-9.77515625 66.27195312 -10.3784375 65.64546875 -11 65 C-9.6415798 61.95667235 -8.11536976 59.87690849 -5.7421875 57.546875 C-5.11699219 56.928125 -4.49179687 56.309375 -3.84765625 55.671875 C-2.87119141 54.72054687 -2.87119141 54.72054687 -1.875 53.75 C-1.21628906 53.1003125 -0.55757812 52.450625 0.12109375 51.78125 C1.74296643 50.18288273 3.3693281 48.58938103 5 47 C-7.62216092 46.95358552 -20.24430142 46.91808449 -32.86653042 46.89637566 C-38.72802694 46.88595462 -44.58946491 46.87182607 -50.45092773 46.84912109 C-56.11138036 46.82733287 -61.7717768 46.81541874 -67.43226814 46.81024551 C-69.58793077 46.80656049 -71.74359045 46.79936463 -73.89922905 46.78853989 C-76.92694534 46.77394557 -79.95443172 46.77202538 -82.98217773 46.77294922 C-84.30820007 46.76216339 -84.30820007 46.76216339 -85.66101074 46.75115967 C-93.95127298 46.77839237 -101.40322278 47.60263682 -108 53 C-116.08102124 61.14836309 -116.13816954 70.21870721 -116.31640625 81.0859375 C-116.33718735 82.14285797 -116.35796844 83.19977844 -116.37937927 84.28872681 C-116.44453991 87.65075445 -116.50360361 91.01285737 -116.5625 94.375 C-116.60571708 96.6601639 -116.64933238 98.94532031 -116.69335938 101.23046875 C-116.80018687 106.82023619 -116.901548 112.41007903 -117 118 C-122.28 118 -127.56 118 -133 118 C-133.09088585 110.75814529 -133.16404942 103.51660968 -133.20724869 96.27430248 C-133.22799721 92.91027075 -133.25607591 89.5466542 -133.30175781 86.18286133 C-133.35062704 82.30278844 -133.37305005 78.42329474 -133.390625 74.54296875 C-133.41127014 73.35293747 -133.43191528 72.16290619 -133.45318604 70.93681335 C-133.45633979 59.03313642 -130.28295967 49.67660528 -122 41 C-113.04333008 32.44968184 -103.13623559 29.39020116 -90.92895508 29.45410156 C-89.36109756 29.43859505 -89.36109756 29.43859505 -87.76156616 29.42277527 C-84.34739335 29.3935565 -80.93381876 29.3918525 -77.51953125 29.390625 C-75.13627506 29.37562927 -72.75302921 29.35889922 -70.36979675 29.34051514 C-64.12771097 29.29698627 -57.88576535 29.27687449 -51.64355469 29.26177979 C-45.26163495 29.24215656 -38.87986543 29.20019242 -32.49804688 29.16015625 C-19.99871898 29.08501058 -7.49949999 29.0366916 5 29 C-0.28 23.72 -5.56 18.44 -11 13 C-9.07859132 9.15718264 -7.4073184 7.19568073 -4.375 4.25 C-3.14910156 3.05117187 -3.14910156 3.05117187 -1.8984375 1.828125 C-1.27195312 1.22484375 -0.64546875 0.6215625 0 0 Z " fill="#000000" transform="translate(301,90)"/>
<path d="M0 0 C1.77662117 1.07381517 3.54609689 2.159458 5.3125 3.25 C6.79169922 4.15492188 6.79169922 4.15492188 8.30078125 5.078125 C10.82922888 6.87840898 12.326533 8.41840585 14 11 C13.57847656 11.69867188 13.15695312 12.39734375 12.72265625 13.1171875 C12.17480469 14.02726562 11.62695312 14.93734375 11.0625 15.875 C10.24458984 17.23238281 10.24458984 17.23238281 9.41015625 18.6171875 C8.56101983 20.05201636 7.74562276 21.50875448 7 23 C2.85701333 22.40165275 -0.18194377 20.99335715 -3.8125 18.9375 C-4.78832031 18.38964844 -5.76414063 17.84179688 -6.76953125 17.27734375 C-7.50558594 16.85582031 -8.24164063 16.43429687 -9 16 C-7.51637716 9.73581469 -3.75837844 5.08486495 0 0 Z " fill="#000000" transform="translate(258,279)"/>
<path d="M0 0 C3.86715038 2.12246797 6.74405677 4.52746145 9.8125 7.6875 C10.60269531 8.49574219 11.39289063 9.30398438 12.20703125 10.13671875 C12.79871094 10.75160156 13.39039063 11.36648438 14 12 C10.62771299 16.63689463 6.58029339 20.55982293 2 24 C1.34 24 0.68 24 0 24 C-1.22278111 22.54588192 -2.44157582 21.08788691 -3.625 19.6015625 C-5.50826532 17.40798642 -7.68610696 15.71889197 -10 14 C-8.43632643 10.47761953 -6.30504111 7.72876006 -3.875 4.75 C-3.15054687 3.85796875 -2.42609375 2.9659375 -1.6796875 2.046875 C-0.84824219 1.03367187 -0.84824219 1.03367187 0 0 Z " fill="#000000" transform="translate(395,260)"/>
<path d="M0 0 C3.70771635 1.23590545 4.80069868 2.80373596 7.25 5.8125 C7.97703125 6.68519531 8.7040625 7.55789063 9.453125 8.45703125 C11 11 11 11 11.1015625 13.0546875 C9.39886094 16.061586 6.9908179 17.43288082 4.125 19.3125 C3.05507813 20.03050781 1.98515625 20.74851562 0.8828125 21.48828125 C-0.54417969 22.23658203 -0.54417969 22.23658203 -2 23 C-5 22 -5 22 -6.82421875 18.83984375 C-7.45553148 17.54399131 -8.07625399 16.24293771 -8.6875 14.9375 C-9.00783203 14.27427734 -9.32816406 13.61105469 -9.65820312 12.92773438 C-10.4478598 11.28949142 -11.22512362 9.64528546 -12 8 C-10.07053972 6.63292504 -8.13289523 5.28155046 -6.1875 3.9375 C-5.10855469 3.18339844 -4.02960938 2.42929687 -2.91796875 1.65234375 C-1.95503906 1.10707031 -0.99210937 0.56179688 0 0 Z " fill="#000000" transform="translate(385,398)"/>
<path d="M0 0 C1.18688006 1.3793471 2.3710978 2.76284003 3.48828125 4.19921875 C5.50622249 6.60301956 7.78072701 8.78072701 10 11 C5.05 17.435 5.05 17.435 0 24 C-4.08602467 21.5483852 -6.58072612 19.64074474 -9.8125 16.3125 C-10.60269531 15.50425781 -11.39289063 14.69601562 -12.20703125 13.86328125 C-12.79871094 13.24839844 -13.39039063 12.63351562 -14 12 C-4.24783862 0 -4.24783862 0 0 0 Z " fill="#000000" transform="translate(277,388)"/>
<path d="M0 0 C1.60546875 2.6171875 1.60546875 2.6171875 3.1875 5.875 C3.71730469 6.94492187 4.24710937 8.01484375 4.79296875 9.1171875 C6 12 6 12 6 15 C3.734375 16.89453125 3.734375 16.89453125 0.75 18.8125 C-0.22453125 19.45832031 -1.1990625 20.10414063 -2.203125 20.76953125 C-5 22 -5 22 -7.09375 21.51953125 C-9.55566724 19.55706034 -11.33113321 17.36952683 -13.25 14.875 C-13.95640625 13.96492188 -14.6628125 13.05484375 -15.390625 12.1171875 C-15.92171875 11.41851562 -16.4528125 10.71984375 -17 10 C-6.04511278 -2.01503759 -6.04511278 -2.01503759 0 0 Z " fill="#000000" transform="translate(292,252)"/>
<path d="M0 0 C2.31853933 0.92442407 4.62902749 1.86353608 6.9375 2.8125 C7.59685547 3.07353516 8.25621094 3.33457031 8.93554688 3.60351562 C10.66028184 4.319944 12.3349412 5.1540925 14 6 C15 9 15 9 13.671875 11.84765625 C13.03765625 12.90855469 12.4034375 13.96945312 11.75 15.0625 C11.12609375 16.12597656 10.5021875 17.18945312 9.859375 18.28515625 C8 21 8 21 5 23 C0.71 20.03 -3.58 17.06 -8 14 C-6.4655333 10.16383324 -5.15341734 7.50606439 -2.875 4.1875 C-2.33617187 3.39730469 -1.79734375 2.60710937 -1.2421875 1.79296875 C-0.83226562 1.20128906 -0.42234375 0.60960937 0 0 Z " fill="#000000" transform="translate(408,370)"/>
<path d="M0 0 C0.67467562 1.74692795 1.33944156 3.49768525 2 5.25 C2.556875 6.71179688 2.556875 6.71179688 3.125 8.203125 C4 11 4 11 4 15 C2.09118566 16.03544174 0.17260796 17.05290085 -1.75 18.0625 C-2.81734375 18.63097656 -3.8846875 19.19945312 -4.984375 19.78515625 C-8 21 -8 21 -10.21875 21.08203125 C-13.13113247 19.31288664 -13.62840922 16.76130014 -14.75 13.625 C-15.17796875 12.46226562 -15.6059375 11.29953125 -16.046875 10.1015625 C-17 7 -17 7 -17 4 C-14.73050898 3.32844651 -12.4596039 2.6626037 -10.1875 2 C-8.92292969 1.62875 -7.65835938 1.2575 -6.35546875 0.875 C-3 0 -3 0 0 0 Z " fill="#000000" transform="translate(260,357)"/>
<path d="M0 0 C1.05960937 0.00676758 1.05960937 0.00676758 2.140625 0.01367188 C3.88545275 0.02546125 5.630237 0.04339676 7.375 0.0625 C7.40205308 2.47924224 7.42186438 4.8956794 7.4375 7.3125 C7.44587891 7.99441406 7.45425781 8.67632812 7.46289062 9.37890625 C7.47981414 12.8651497 7.2283497 15.64910119 6.375 19.0625 C0.765 18.0725 -4.845 17.0825 -10.625 16.0625 C-10.50125 13.608125 -10.3775 11.15375 -10.25 8.625 C-10.21600098 7.85099854 -10.18200195 7.07699707 -10.14697266 6.27954102 C-10.04454818 4.53484889 -9.83757835 2.79721952 -9.625 1.0625 C-6.55966836 -0.47016582 -3.35745728 -0.04026471 0 0 Z " fill="#000000" transform="translate(424.625,334.9375)"/>
<path d="M0 0 C1.75140143 0.45294865 3.50107344 0.91258748 5.25 1.375 C6.71179688 1.75785156 6.71179688 1.75785156 8.203125 2.1484375 C11 3 11 3 15 5 C14.01 9.95 13.02 14.9 12 20 C7.50704271 21.12323932 6.12661251 20.63970225 1.875 19.125 C0.82054687 18.75632812 -0.23390625 18.38765625 -1.3203125 18.0078125 C-4 17 -4 17 -6 16 C-5.37183502 12.05050296 -4.1354471 8.80107972 -2.4375 5.1875 C-1.98246094 4.21167969 -1.52742188 3.23585938 -1.05859375 2.23046875 C-0.70925781 1.49441406 -0.35992187 0.75835937 0 0 Z " fill="#000000" transform="translate(304,409)"/>
<path d="M0 0 C2.91238247 1.76914461 3.40965922 4.32073111 4.53125 7.45703125 C4.95921875 8.61976563 5.3871875 9.7825 5.828125 10.98046875 C6.78125 14.08203125 6.78125 14.08203125 6.78125 17.08203125 C4.51175898 17.75358474 2.2408539 18.41942755 -0.03125 19.08203125 C-1.92810547 19.63890625 -1.92810547 19.63890625 -3.86328125 20.20703125 C-7.21875 21.08203125 -7.21875 21.08203125 -10.21875 21.08203125 C-10.89342562 19.3351033 -11.55819156 17.584346 -12.21875 15.83203125 C-12.59 14.8575 -12.96125 13.88296875 -13.34375 12.87890625 C-14.21875 10.08203125 -14.21875 10.08203125 -14.21875 6.08203125 C-12.30993566 5.04658951 -10.39135796 4.0291304 -8.46875 3.01953125 C-6.86773437 2.16681641 -6.86773437 2.16681641 -5.234375 1.296875 C-2.21875 0.08203125 -2.21875 0.08203125 0 0 Z " fill="#000000" transform="translate(422.21875,293.91796875)"/>
<path d="M0 0 C9 1.125 9 1.125 13.5 3.0625 C14.78390625 3.60583984 14.78390625 3.60583984 16.09375 4.16015625 C17.03734375 4.57587891 17.03734375 4.57587891 18 5 C16.25192871 10.46737191 14.34205919 15.75824848 12 21 C10.24859857 20.54705135 8.49892656 20.08741252 6.75 19.625 C5.77546875 19.36976563 4.8009375 19.11453125 3.796875 18.8515625 C1 18 1 18 -3 16 C-2.01 10.72 -1.02 5.44 0 0 Z " fill="#000000" transform="translate(356,242)"/>
<path d="M0 0 C1.89611434 0.14213297 3.79188394 0.28886907 5.6875 0.4375 C6.74324219 0.51871094 7.79898438 0.59992188 8.88671875 0.68359375 C12 1 12 1 17 2 C16.67 6.95 16.34 11.9 16 17 C12.16432171 17.95891957 9.17718859 18.10177189 5.25 18.0625 C4.07953125 18.05347656 2.9090625 18.04445313 1.703125 18.03515625 C0.81109375 18.02355469 -0.0809375 18.01195312 -1 18 C-1.02698422 15.56242587 -1.04683099 13.12515085 -1.0625 10.6875 C-1.07087891 9.99720703 -1.07925781 9.30691406 -1.08789062 8.59570312 C-1.10307906 5.4516975 -1.00193327 3.00579981 0 0 Z " fill="#000000" transform="translate(241,319)"/>
<path d="M0 0 C0.50404808 2.10320063 1.00310508 4.20759791 1.5 6.3125 C1.7784375 7.48425781 2.056875 8.65601563 2.34375 9.86328125 C3 13 3 13 3 16 C-3.21765282 17.8422675 -8.51277762 18.18020062 -15 18 C-15.33 12.39 -15.66 6.78 -16 1 C-10.60869279 0.3364545 -5.42910999 -0.11551298 0 0 Z " fill="#000000" transform="translate(355,414)"/>
<path d="M0 0 C0.495 8.415 0.495 8.415 1 17 C-4.28 17.33 -9.56 17.66 -15 18 C-18 6.5 -18 6.5 -18 2 C-11.78234718 0.1577325 -6.48722238 -0.18020062 0 0 Z " fill="#000000" transform="translate(332,240)"/>
<path d="M0 0 C5.28 0 10.56 0 16 0 C16 5.28 16 10.56 16 16 C10.72 16 5.44 16 0 16 C0 10.72 0 5.44 0 0 Z " fill="#000000" transform="translate(160,80)"/>
<path d="M0 0 C5.28 0 10.56 0 16 0 C16 5.28 16 10.56 16 16 C10.72 16 5.44 16 0 16 C0 10.72 0 5.44 0 0 Z " fill="#000000" transform="translate(128,80)"/>
<path d="M0 0 C5.28 0 10.56 0 16 0 C16 5.28 16 10.56 16 16 C10.72 16 5.44 16 0 16 C0 10.72 0 5.44 0 0 Z " fill="#000000" transform="translate(96,80)"/>
</svg>
