<?xml version="1.0" encoding="UTF-8"?>
<svg version="1.1" xmlns="http://www.w3.org/2000/svg" width="512" height="512">
<path d="M0 0 C15.18063422 15.68229311 21.27113677 33.09453878 21.13647461 54.81005859 C20.73039843 71.17785635 15.36218872 86.21702562 4.71875 98.80859375 C5.75773437 98.834375 6.79671875 98.86015625 7.8671875 98.88671875 C18.65827546 99.27410443 27.95423821 100.41591293 36.1875 108.10546875 C43.2531296 115.96417922 45.01904159 123.86895651 44.98617554 134.18830872 C44.99070665 135.23247458 44.99523776 136.27664044 44.99990618 137.35244769 C45.0125646 140.85065141 45.01092886 144.34869974 45.00927734 147.84692383 C45.01526167 150.35534363 45.022067 152.86376159 45.02963257 155.37217712 C45.04547314 161.47848731 45.05174137 167.58474059 45.05285732 173.6910694 C45.05380857 178.65605326 45.05792271 183.62102442 45.06425858 188.58600426 C45.0818665 202.67137812 45.09109815 216.75672155 45.08959763 230.8421065 C45.08951772 231.60102044 45.0894378 232.35993437 45.08935547 233.1418457 C45.08927371 233.90168928 45.08919195 234.66153286 45.08910771 235.444402 C45.08829493 247.75672595 45.10743166 260.06892753 45.1356322 272.38121609 C45.16437863 285.03194704 45.17817153 297.68261835 45.17644465 310.33338279 C45.17578136 317.43239396 45.18124699 324.53127685 45.20280075 331.63025856 C45.22294448 338.30747306 45.22232094 344.98437194 45.20776749 351.66161537 C45.20567586 354.11054378 45.21040124 356.55948905 45.2224884 359.00838852 C45.23793597 362.35521983 45.22863486 365.70111651 45.21322632 369.04792786 C45.22865701 370.49658956 45.22865701 370.49658956 45.24439943 371.97451717 C45.14636239 381.63122617 41.37870528 389.81258568 34.71875 396.80859375 C28.21096202 401.93673068 21.77057739 404.06122415 13.46743774 404.04910278 C12.40619141 404.05166606 12.40619141 404.05166606 11.32350576 404.05428112 C8.96507748 404.05756179 6.606937 404.04659602 4.24853516 404.03564453 C2.55309048 404.03508011 0.85764532 404.03539758 -0.83779907 404.03652954 C-5.43238154 404.03710284 -10.02685935 404.02535213 -14.62141752 404.01138163 C-19.42604255 403.99887056 -24.23067003 403.99770347 -29.03530884 403.99533081 C-38.12995253 403.98911715 -47.22454809 403.97270786 -56.31917059 403.95263183 C-66.67460777 403.9302693 -77.03004726 403.91927851 -87.38550258 403.90924096 C-108.68411191 403.88834155 -129.98267792 403.85316776 -151.28125 403.80859375 C-150.97832031 404.67137939 -150.67539062 405.53416504 -150.36328125 406.4230957 C-149.24139555 409.62543214 -148.12369006 412.82916399 -147.00878906 416.03393555 C-146.52543208 417.42058618 -146.04041689 418.80665996 -145.55371094 420.19213867 C-144.85435047 422.18388873 -144.16098282 424.1776383 -143.46875 426.171875 C-142.84033203 427.97072144 -142.84033203 427.97072144 -142.19921875 429.8059082 C-141.28125 432.80859375 -141.28125 432.80859375 -141.28125 435.80859375 C-139.9494873 435.77717285 -139.9494873 435.77717285 -138.59082031 435.74511719 C-135.28830545 435.67683698 -131.9865433 435.62674505 -128.68359375 435.58886719 C-127.25573879 435.56878393 -125.82796575 435.54151123 -124.40039062 435.50683594 C-122.34484632 435.45816706 -120.29039145 435.43559408 -118.234375 435.41796875 C-116.99848633 435.39702148 -115.76259766 435.37607422 -114.48925781 435.35449219 C-111.28125 435.80859375 -111.28125 435.80859375 -109.09637451 437.1963501 C-106.26908655 441.2652528 -106.85559742 445.23490358 -107.03125 450.05859375 C-107.04929687 450.99445313 -107.06734375 451.9303125 -107.0859375 452.89453125 C-107.13299327 455.2002639 -107.19871287 457.5039032 -107.28125 459.80859375 C-106.23777405 459.7997113 -105.1942981 459.79082886 -104.11920166 459.78167725 C-94.29012419 459.70062492 -84.46111443 459.64064447 -74.63177872 459.60134506 C-69.5782708 459.58046161 -64.52503245 459.55213004 -59.47167969 459.50683594 C-54.59577532 459.46340536 -49.7201304 459.43946235 -44.84404755 459.42908478 C-42.98286606 459.4216884 -41.12169892 459.40724509 -39.26062775 459.38567352 C-36.65553496 459.35667631 -34.05151702 459.35263616 -31.44628906 459.35449219 C-30.67520813 459.34011108 -29.9041272 459.32572998 -29.10968018 459.31091309 C-25.56779054 459.33825546 -23.65290277 459.52302047 -20.80413818 461.7119751 C-19.15461157 463.98294174 -18.73791756 465.03531763 -18.78125 467.80859375 C-18.7709375 468.46859375 -18.760625 469.12859375 -18.75 469.80859375 C-19.53075932 472.74792296 -20.9358575 473.90445446 -23.28125 475.80859375 C-26.08177185 476.30999041 -26.08177185 476.30999041 -29.38452148 476.31195831 C-30.64404129 476.3223893 -31.9035611 476.33282029 -33.20124817 476.34356737 C-34.60161566 476.33491886 -36.00198086 476.32589222 -37.40234375 476.31652832 C-38.88787956 476.32113569 -40.37341081 476.32748751 -41.8589325 476.3354373 C-45.94686276 476.35217647 -50.03442078 476.34386362 -54.1223526 476.33149242 C-58.52869727 476.32246292 -62.93497676 476.33640119 -67.34130859 476.34741211 C-75.97558461 476.36522443 -84.60972177 476.3613453 -93.2440033 476.34976155 C-100.25952293 476.34073815 -107.27500357 476.33949848 -114.29052734 476.34385681 C-115.28796054 476.34446974 -116.28539373 476.34508268 -117.31305218 476.34571418 C-119.33914313 476.34699305 -121.36523407 476.3482899 -123.391325 476.34960455 C-142.40235649 476.36101829 -161.41331091 476.34788419 -180.42432976 476.32640308 C-196.74646678 476.30853138 -213.06849003 476.31163527 -229.390625 476.33007812 C-248.33234024 476.35147081 -267.27398787 476.35991958 -286.2157135 476.34762907 C-288.23446654 476.34635484 -290.25321959 476.34509735 -292.27197266 476.34385681 C-293.26530955 476.34323971 -294.25864645 476.34262261 -295.28208447 476.34198681 C-302.29142564 476.3385291 -309.30072404 476.3443713 -316.31005859 476.35377502 C-324.84890112 476.36497861 -333.38759651 476.36198959 -341.92642212 476.34065205 C-346.28540142 476.33011946 -350.64413516 476.3260572 -355.00311279 476.33924866 C-358.99037948 476.35113297 -362.97717209 476.34467612 -366.96439552 476.32333845 C-368.40982403 476.31885547 -369.85529227 476.32117653 -371.30069542 476.3308416 C-373.25976254 476.34294058 -375.21894122 476.32818251 -377.17797852 476.31195831 C-378.81283958 476.3109842 -378.81283958 476.3109842 -380.48072815 476.30999041 C-383.94896843 475.68904753 -385.12678779 474.53930716 -387.28125 471.80859375 C-387.8125 469.80859375 -387.8125 469.80859375 -387.78125 467.80859375 C-387.7915625 467.14859375 -387.801875 466.48859375 -387.8125 465.80859375 C-387.01040632 462.78894697 -385.75826664 461.71190196 -383.28125 459.80859375 C-380.427215 459.43452051 -377.96558237 459.30134977 -375.11621094 459.35449219 C-374.2963269 459.35390808 -373.47644287 459.35332397 -372.63171387 459.35272217 C-369.92591789 459.35550545 -367.22122815 459.38660826 -364.515625 459.41796875 C-362.6380473 459.42543029 -360.76046181 459.43112363 -358.88287354 459.43511963 C-353.94415742 459.45038284 -349.0059128 459.48967062 -344.06738281 459.53393555 C-339.02675759 459.5748734 -333.98605609 459.59312747 -328.9453125 459.61328125 C-319.05708465 459.65616416 -309.16920655 459.72442387 -299.28125 459.80859375 C-299.30219727 459.22368164 -299.32314453 458.63876953 -299.34472656 458.03613281 C-299.42805115 455.3771291 -299.47995897 452.7184002 -299.53125 450.05859375 C-299.56476563 449.13820313 -299.59828125 448.2178125 -299.6328125 447.26953125 C-299.73154999 440.45664476 -299.73154999 440.45664476 -297.46612549 437.1963501 C-294.34536319 435.21415124 -292.00305295 435.35568184 -288.328125 435.41796875 C-287.66790344 435.42362854 -287.00768188 435.42928833 -286.32745361 435.43511963 C-284.22796737 435.45743145 -282.1302163 435.50761061 -280.03125 435.55859375 C-278.6041914 435.57866581 -277.17710592 435.59691536 -275.75 435.61328125 C-272.25985707 435.65727682 -268.77072301 435.72626499 -265.28125 435.80859375 C-265.03632813 434.57238281 -264.79140625 433.33617187 -264.5390625 432.0625 C-263.21923884 426.12329351 -261.19976269 420.46865136 -259.15625 414.74609375 C-258.78371094 413.68970703 -258.41117188 412.63332031 -258.02734375 411.54492188 C-257.11659623 408.96447058 -256.20115295 406.38579231 -255.28125 403.80859375 C-256.15939582 403.81228092 -257.03754164 403.81596809 -257.94229794 403.819767 C-279.32582306 403.90816795 -300.70931661 403.97432769 -322.09298611 404.01584244 C-332.4340465 404.03645314 -342.77498479 404.06454525 -353.1159668 404.11035156 C-362.13090713 404.15026496 -371.14575902 404.17603741 -380.16078526 404.18494773 C-384.9326285 404.19015484 -389.70421874 404.20236238 -394.47598076 404.23151398 C-398.97149185 404.25875423 -403.4666468 404.2670214 -407.96223259 404.26102448 C-409.60811806 404.26212087 -411.254016 404.27002342 -412.89982986 404.28541565 C-421.3689272 404.36070667 -428.82992982 404.40610924 -436.28125 399.80859375 C-437.09078125 399.339375 -437.9003125 398.87015625 -438.734375 398.38671875 C-445.35821301 393.49083848 -449.12236362 387.7663978 -451.28125 379.80859375 C-451.57349809 376.35054268 -451.55973102 372.90439594 -451.54867554 369.43560791 C-451.55320665 368.39214761 -451.55773776 367.34868732 -451.56240618 366.27360702 C-451.57506463 362.77773724 -451.57342885 359.28202297 -451.57177734 355.78613281 C-451.57776171 353.27933553 -451.58456704 350.77254008 -451.59213257 348.26574707 C-451.60797355 342.16311188 -451.61424141 336.06053363 -451.61535732 329.95787981 C-451.61630864 324.99528822 -451.62042311 320.03270934 -451.62675858 315.07012177 C-451.64436736 300.98981356 -451.65359812 286.90953581 -451.65209763 272.82921651 C-451.65201772 272.0705653 -451.6519378 271.31191408 -451.65185547 270.53027344 C-451.65177371 269.77069217 -451.65169195 269.0111109 -451.65160771 268.22851202 C-451.65079511 255.92333011 -451.66992698 243.6182707 -451.6981322 231.31312421 C-451.72688707 218.66803849 -451.74067104 206.02301245 -451.73894465 193.37789321 C-451.7382816 186.2827625 -451.74373629 179.18776019 -451.76530075 172.092659 C-451.78545809 165.41790372 -451.7848123 158.74346409 -451.77026749 152.06867981 C-451.76817736 149.621784 -451.77289233 147.17487126 -451.7849884 144.72800446 C-451.8004574 141.38152374 -451.79112071 138.03597525 -451.77572632 134.68951416 C-451.78601344 133.72665253 -451.79630057 132.7637909 -451.80689943 131.77175164 C-451.7164541 122.84325153 -449.1539071 114.94560539 -442.984375 108.33984375 C-436.49697494 102.50713544 -429.49193815 99.54689143 -420.72509766 99.58154297 C-418.80378525 99.58176956 -418.80378525 99.58176956 -416.84365845 99.58200073 C-415.46087485 99.59221166 -414.07809288 99.60264361 -412.6953125 99.61328125 C-411.26899413 99.6170154 -409.84267318 99.61986047 -408.41635132 99.62185669 C-404.67792573 99.62946156 -400.93965767 99.64908266 -397.20129395 99.67126465 C-393.38031138 99.69179118 -389.55930316 99.70087291 -385.73828125 99.7109375 C-378.25253267 99.73233183 -370.76691348 99.76642935 -363.28125 99.80859375 C-363.29013245 99.06579163 -363.29901489 98.3229895 -363.3081665 97.55767822 C-363.38834744 90.5540947 -363.44923186 83.5506704 -363.48849869 76.54675674 C-363.50936513 72.94601089 -363.53766421 69.34564459 -363.58300781 65.74511719 C-363.62650125 62.26971462 -363.65039421 58.79467687 -363.66075897 55.31902313 C-363.67173615 53.34913591 -363.702957 51.37939528 -363.73443604 49.409729 C-363.73488922 47.60831451 -363.73488922 47.60831451 -363.73535156 45.77050781 C-363.74423401 44.7134967 -363.75311646 43.6564856 -363.76226807 42.56744385 C-363.1532921 39.07469896 -362.098117 37.90932776 -359.28125 35.80859375 C-357.30859375 35.30065918 -357.30859375 35.30065918 -355.21875 35.29101562 C-354.43113281 35.27840698 -353.64351563 35.26579834 -352.83203125 35.25280762 C-351.99027344 35.26090454 -351.14851563 35.26900146 -350.28125 35.27734375 C-349.40855469 35.27351685 -348.53585937 35.26968994 -347.63671875 35.26574707 C-345.79425908 35.26302885 -343.95176076 35.27038381 -342.109375 35.28710938 C-339.29079066 35.30852127 -336.47475515 35.28730574 -333.65625 35.26171875 C-331.86457771 35.26436204 -330.07290701 35.26948706 -328.28125 35.27734375 C-327.43949219 35.26924683 -326.59773438 35.2611499 -325.73046875 35.25280762 C-324.94285156 35.26541626 -324.15523438 35.2780249 -323.34375 35.29101562 C-322.30927734 35.29578918 -322.30927734 35.29578918 -321.25390625 35.30065918 C-318.29319898 36.06300466 -317.11200271 37.39410088 -315.28125 39.80859375 C-314.80023193 42.56744385 -314.80023193 42.56744385 -314.82714844 45.77050781 C-314.82745056 46.97145081 -314.82775269 48.1723938 -314.82806396 49.409729 C-314.84870911 50.70151062 -314.86935425 51.99329224 -314.890625 53.32421875 C-314.89808929 54.66370804 -314.90378134 56.00320827 -314.90777588 57.3427124 C-314.92301787 60.86110811 -314.96228582 64.3788389 -315.0065918 67.89697266 C-315.04757636 71.48981736 -315.0657936 75.08276995 -315.0859375 78.67578125 C-315.12878255 85.72032341 -315.19701554 92.76441507 -315.28125 99.80859375 C-312.64125 99.80859375 -310.00125 99.80859375 -307.28125 99.80859375 C-307.28493717 99.21444798 -307.28862434 98.6203022 -307.29242325 98.00815201 C-307.38075112 83.55292212 -307.44694826 69.09771631 -307.48849869 54.64227676 C-307.50912618 47.65171875 -307.53725001 40.66134085 -307.58300781 33.67089844 C-307.62712654 26.92764553 -307.65037245 20.18461861 -307.66075897 13.44121552 C-307.66816302 10.86552735 -307.68262091 8.28984969 -307.70417023 5.71424103 C-307.73310884 2.1129777 -307.73720985 -1.48750673 -307.73535156 -5.08886719 C-307.74973267 -6.15917175 -307.76411377 -7.22947632 -307.77893066 -8.33221436 C-307.73874711 -15.50519993 -307.73874711 -15.50519993 -305.5067749 -18.85296631 C-303.15619486 -20.26661493 -301.93479306 -20.69645123 -299.21875 -20.70898438 C-298.03732422 -20.72789734 -298.03732422 -20.72789734 -296.83203125 -20.74719238 C-295.99027344 -20.73909546 -295.14851562 -20.73099854 -294.28125 -20.72265625 C-292.97220703 -20.72839661 -292.97220703 -20.72839661 -291.63671875 -20.73425293 C-289.79425908 -20.73697115 -287.95176076 -20.72961619 -286.109375 -20.71289062 C-283.29079066 -20.69147873 -280.47475515 -20.71269426 -277.65625 -20.73828125 C-275.86457771 -20.73563796 -274.07290701 -20.73051294 -272.28125 -20.72265625 C-271.43949219 -20.73075317 -270.59773437 -20.7388501 -269.73046875 -20.74719238 C-268.94285156 -20.73458374 -268.15523437 -20.7219751 -267.34375 -20.70898438 C-266.30927734 -20.70421082 -266.30927734 -20.70421082 -265.25390625 -20.69934082 C-262.07007772 -19.87954438 -261.12650867 -18.95913558 -259.28125 -16.19140625 C-258.69302638 -12.49284587 -258.77693043 -8.82631067 -258.82714844 -5.08886719 C-258.82656433 -3.9568689 -258.82598022 -2.82487061 -258.82537842 -1.65856934 C-258.82816687 2.08600443 -258.85929648 5.8297839 -258.890625 9.57421875 C-258.89808464 12.16924606 -258.90377888 14.76427901 -258.90777588 17.35931396 C-258.921492 23.49337691 -258.9530225 29.62711167 -258.99317384 35.76105094 C-259.0378975 42.74525097 -259.05988002 49.7294647 -259.07995558 56.7137723 C-259.12175565 71.07886603 -259.19210393 85.44371975 -259.28125 99.80859375 C-256.64125 99.80859375 -254.00125 99.80859375 -251.28125 99.80859375 C-251.29013245 98.7651178 -251.29901489 97.72164185 -251.3081665 96.64654541 C-251.38921883 86.81746794 -251.44919928 76.98845818 -251.48849869 67.15912247 C-251.50938214 62.10561455 -251.53771371 57.0523762 -251.58300781 51.99902344 C-251.62643839 47.12311907 -251.6503814 42.24747415 -251.66075897 37.3713913 C-251.66815535 35.51020981 -251.68259866 33.64904267 -251.70417023 31.7879715 C-251.73316744 29.18287871 -251.73720759 26.57886077 -251.73535156 23.97363281 C-251.74973267 23.20255188 -251.76411377 22.43147095 -251.77893066 21.63702393 C-251.75226937 18.18336076 -251.54193124 16.17262215 -249.5067749 13.33062744 C-247.13118619 11.7059653 -246.05429971 11.30410023 -243.21875 11.29101562 C-242.43113281 11.27840698 -241.64351562 11.26579834 -240.83203125 11.25280762 C-239.99027344 11.26090454 -239.14851562 11.26900146 -238.28125 11.27734375 C-237.40855469 11.27351685 -236.53585938 11.26968994 -235.63671875 11.26574707 C-233.79425908 11.26302885 -231.95176076 11.27038381 -230.109375 11.28710938 C-227.29079066 11.30852127 -224.47475515 11.28730574 -221.65625 11.26171875 C-219.86457771 11.26436204 -218.07290701 11.26948706 -216.28125 11.27734375 C-215.43949219 11.26924683 -214.59773437 11.2611499 -213.73046875 11.25280762 C-212.94285156 11.26541626 -212.15523437 11.2780249 -211.34375 11.29101562 C-210.30927734 11.29578918 -210.30927734 11.29578918 -209.25390625 11.30065918 C-206.20520669 12.08566158 -205.11099973 13.25343916 -203.28125 15.80859375 C-202.90710851 18.66314945 -202.77405695 21.1238137 -202.82714844 23.97363281 C-202.8266663 24.80673855 -202.82618416 25.63984428 -202.82568741 26.49819565 C-202.82866921 29.1906404 -202.85911011 31.8819726 -202.890625 34.57421875 C-202.89650735 36.23811307 -202.90058732 37.90201477 -202.90283203 39.56591797 C-202.92378954 45.73025623 -202.9796346 51.89443596 -203.03125 58.05859375 C-203.11375 71.83609375 -203.19625 85.61359375 -203.28125 99.80859375 C-155.76125 99.31359375 -155.76125 99.31359375 -107.28125 98.80859375 C-109.59125 95.50859375 -111.90125 92.20859375 -114.28125 88.80859375 C-123.96429267 71.40312449 -126.39295444 51.17674177 -121.78125 31.74609375 C-115.92076503 13.49078515 -103.94460261 -3.01043608 -86.7421875 -12.12890625 C-79.19540117 -15.91492921 -71.62684145 -18.71523617 -63.28125 -20.19140625 C-62.43820312 -20.34480469 -61.59515625 -20.49820312 -60.7265625 -20.65625 C-38.52864077 -23.65870446 -15.79250357 -15.59711062 0 0 Z M-291.28125 -4.19140625 C-291.28125 56.52859375 -291.28125 117.24859375 -291.28125 179.80859375 C-286.00125 179.80859375 -280.72125 179.80859375 -275.28125 179.80859375 C-275.28125 119.08859375 -275.28125 58.36859375 -275.28125 -4.19140625 C-280.56125 -4.19140625 -285.84125 -4.19140625 -291.28125 -4.19140625 Z M-43.28125 -3.19140625 C-43.28125 12.31859375 -43.28125 27.82859375 -43.28125 43.80859375 C-27.77125 43.80859375 -12.26125 43.80859375 3.71875 43.80859375 C-0.86559476 25.47121469 -7.94816141 12.8217448 -24.28125 2.80859375 C-30.57341972 -0.17715836 -36.4031749 -2.0450604 -43.28125 -3.19140625 Z M-85.28125 7.80859375 C-85.98894531 8.30875 -86.69664062 8.80890625 -87.42578125 9.32421875 C-97.19401798 16.95384744 -104.3340941 29.66143577 -106.28125 41.80859375 C-107.73685106 57.47868623 -105.96055126 70.97841054 -96.28125 83.80859375 C-95.64938026 83.25210396 -95.64938026 83.25210396 -95.00474548 82.68437195 C-91.99252861 80.06267714 -88.96646524 77.52785266 -85.73266602 75.18286133 C-74.00706726 66.63290251 -60.42205582 56.50149617 -57.89111328 41.40869141 C-56.30976149 26.62219217 -57.56693336 11.53616747 -59.28125 -3.19140625 C-68.77522773 -3.19140625 -77.89741608 2.38373617 -85.28125 7.80859375 Z M-235.28125 27.80859375 C-235.28125 77.96859375 -235.28125 128.12859375 -235.28125 179.80859375 C-230.00125 179.80859375 -224.72125 179.80859375 -219.28125 179.80859375 C-219.28125 129.64859375 -219.28125 79.48859375 -219.28125 27.80859375 C-224.56125 27.80859375 -229.84125 27.80859375 -235.28125 27.80859375 Z M-347.28125 51.80859375 C-347.28125 94.04859375 -347.28125 136.28859375 -347.28125 179.80859375 C-342.00125 179.80859375 -336.72125 179.80859375 -331.28125 179.80859375 C-331.28125 137.56859375 -331.28125 95.32859375 -331.28125 51.80859375 C-336.56125 51.80859375 -341.84125 51.80859375 -347.28125 51.80859375 Z M-83.28125 95.80859375 C-79.57507774 99.68035006 -76.79201962 101.74797145 -71.71875 103.55859375 C-70.60371094 103.9659375 -69.48867188 104.37328125 -68.33984375 104.79296875 C-55.77717975 108.96447915 -40.28968313 108.32598195 -28.28125 102.80859375 C-24.39631592 100.73251786 -20.8291876 98.41524178 -17.28125 95.80859375 C-16.57355469 95.3084375 -15.86585938 94.80828125 -15.13671875 94.29296875 C-4.96144092 86.34541447 1.00370118 74.18769745 3.71875 61.80859375 C3.71875 61.14859375 3.71875 60.48859375 3.71875 59.80859375 C-37.75156799 53.87785862 -58.16207246 62.26692531 -83.28125 95.80859375 Z M-315.28125 115.80859375 C-315.28125 136.92859375 -315.28125 158.04859375 -315.28125 179.80859375 C-312.64125 179.80859375 -310.00125 179.80859375 -307.28125 179.80859375 C-307.28125 158.68859375 -307.28125 137.56859375 -307.28125 115.80859375 C-309.92125 115.80859375 -312.56125 115.80859375 -315.28125 115.80859375 Z M-259.28125 115.80859375 C-259.28125 136.92859375 -259.28125 158.04859375 -259.28125 179.80859375 C-256.64125 179.80859375 -254.00125 179.80859375 -251.28125 179.80859375 C-251.28125 158.68859375 -251.28125 137.56859375 -251.28125 115.80859375 C-253.92125 115.80859375 -256.56125 115.80859375 -259.28125 115.80859375 Z M-431.21875 121.55859375 C-470.20673051 182.99419941 -435.28125 267.04599163 -435.28125 339.80859375 C-282.16125 339.80859375 -129.04125 339.80859375 28.71875 339.80859375 C50.90408151 219.94005914 50.90408151 219.94005914 22.96875 119.87109375 C15.68827799 115.2507942 7.9373023 115.4057169 -0.39477539 115.38305664 C-2.4473624 115.37121712 -4.49687845 115.32200073 -6.54882812 115.27148438 C-14.40945986 115.17589959 -20.47762861 116.21935539 -27.61303711 119.5793457 C-35.0698784 123.01471911 -42.81084407 123.19586539 -50.90625 123.18359375 C-51.9586084 123.18270752 -53.0109668 123.18182129 -54.09521484 123.1809082 C-63.21374504 123.04325683 -72.83400352 122.23949737 -80.74490356 117.25688171 C-85.81315959 115.18121002 -90.46100689 115.41439099 -95.88623047 115.46801758 C-97.04778152 115.4675795 -98.20933258 115.46714142 -99.40608215 115.46669006 C-103.23703954 115.46877643 -107.06755676 115.49210122 -110.8984375 115.515625 C-113.55787904 115.52122149 -116.21729635 115.52563895 -118.8767395 115.52848816 C-125.15586623 115.53779774 -131.43483553 115.56239664 -137.71389306 115.59253663 C-145.56704427 115.62941096 -153.42022127 115.64579168 -161.2734375 115.66210938 C-175.27616418 115.69129496 -189.27854753 115.75139663 -203.28125 115.80859375 C-203.28125 136.92859375 -203.28125 158.04859375 -203.28125 179.80859375 C-200.64125 179.80859375 -198.00125 179.80859375 -195.28125 179.80859375 C-195.27538376 179.16379562 -195.26951752 178.5189975 -195.26347351 177.85466003 C-195.19963362 171.15501191 -195.11523853 164.45584835 -195.01879883 157.7565918 C-194.98550529 155.2550291 -194.95748732 152.75339048 -194.93481445 150.25170898 C-194.9013504 146.65966373 -194.84903757 143.06831709 -194.79296875 139.4765625 C-194.78657883 138.35460983 -194.7801889 137.23265717 -194.77360535 136.07670593 C-194.74391411 134.51542717 -194.74391411 134.51542717 -194.71362305 132.92260742 C-194.69696846 131.54693855 -194.69696846 131.54693855 -194.67997742 130.14347839 C-194.28125 127.80859375 -194.28125 127.80859375 -193.00202942 126.01322937 C-189.88662195 123.83228115 -186.01699839 124.38391503 -182.34375 124.41015625 C-181.46726807 124.40728607 -180.59078613 124.40441589 -179.68774414 124.40145874 C-177.83511712 124.39941777 -175.98246858 124.40494997 -174.12988281 124.41748047 C-171.29182821 124.43353391 -168.45519773 124.4176332 -165.6171875 124.3984375 C-163.81770519 124.40041993 -162.01822376 124.40426359 -160.21875 124.41015625 C-159.36869385 124.40408356 -158.5186377 124.39801086 -157.64282227 124.39175415 C-151.80653097 124.4615346 -151.80653097 124.4615346 -149.55770874 125.94735718 C-147.70759927 128.6450483 -147.89999183 130.72318988 -147.89306641 133.9765625 C-147.88360992 135.24798096 -147.87415344 136.51939941 -147.8644104 137.8293457 C-147.86978009 139.21826488 -147.87593304 140.60718123 -147.8828125 141.99609375 C-147.88079161 143.41951649 -147.87788005 144.84293822 -147.87411499 146.26635742 C-147.86969229 149.24896099 -147.87612065 152.23129496 -147.89013672 155.21386719 C-147.90722897 159.03744466 -147.89738745 162.86039041 -147.87941933 166.6839447 C-147.86857981 169.62305462 -147.87202851 172.56201472 -147.8798027 175.50112915 C-147.88180427 176.91094029 -147.87934694 178.32076503 -147.87236404 179.7305603 C-147.86474777 181.70057923 -147.87841421 183.67064584 -147.89306641 185.640625 C-147.89545319 186.76186768 -147.89783997 187.88311035 -147.90029907 189.03833008 C-148.33849998 192.22491391 -148.78560093 192.88977638 -151.28125 194.80859375 C-153.34316921 195.18464124 -153.34316921 195.18464124 -155.76499939 195.18611717 C-156.68873887 195.19394041 -157.61247835 195.20176366 -158.56420994 195.20982397 C-159.5806354 195.2031318 -160.59706087 195.19643964 -161.64428711 195.18954468 C-162.72279151 195.19422465 -163.80129591 195.19890462 -164.91248226 195.20372641 C-168.54464266 195.21574068 -172.17643022 195.2061939 -175.80859375 195.19677734 C-178.4051231 195.20084018 -181.00165072 195.20618043 -183.59817505 195.21270752 C-189.92950202 195.22606622 -196.26072246 195.22315765 -202.59205365 195.2144696 C-207.73641667 195.20770183 -212.88074978 195.20677239 -218.02511597 195.21004105 C-218.7565387 195.21050075 -219.48796142 195.21096044 -220.24154848 195.21143407 C-221.72729469 195.21239322 -223.2130409 195.21336586 -224.69878709 195.21435185 C-238.63945048 195.222912 -252.58005475 195.21306183 -266.52070844 195.19695075 C-278.48942118 195.18354699 -290.45804665 195.18587491 -302.42675781 195.19970703 C-316.31661829 195.21575183 -330.20642691 195.22208797 -344.09629536 195.21287024 C-345.57665824 195.21191457 -347.05702113 195.21097145 -348.53738403 195.21004105 C-349.63001105 195.20934681 -349.63001105 195.20934681 -350.74471134 195.20863854 C-355.88449752 195.20604534 -361.02425088 195.21042673 -366.16403198 195.21747971 C-373.07835813 195.22675896 -379.99251623 195.220178 -386.90682602 195.20279694 C-389.45018107 195.1988173 -391.99354995 195.19999118 -394.53689957 195.20658493 C-397.99752774 195.21473213 -401.4576193 195.20456129 -404.91821289 195.18954468 C-405.93463836 195.19623684 -406.95106382 195.20292901 -407.99829006 195.20982397 C-409.38389928 195.1980891 -409.38389928 195.1980891 -410.79750061 195.18611717 C-411.59670457 195.18563012 -412.39590853 195.18514306 -413.21933079 195.18464124 C-415.81885053 194.71054756 -416.70535836 193.89894292 -418.28125 191.80859375 C-418.66220093 189.03833008 -418.66220093 189.03833008 -418.66943359 185.640625 C-418.67889008 184.36920654 -418.68834656 183.09778809 -418.6980896 181.7878418 C-418.69271991 180.39892262 -418.68656696 179.01000627 -418.6796875 177.62109375 C-418.68170839 176.19767101 -418.68461995 174.77424928 -418.68838501 173.35083008 C-418.69280771 170.36822651 -418.68637935 167.38589254 -418.67236328 164.40332031 C-418.65527103 160.57974284 -418.66511255 156.75679709 -418.68308067 152.9332428 C-418.69392019 149.99413288 -418.69047149 147.05517278 -418.6826973 144.11605835 C-418.68069573 142.70624721 -418.68315306 141.29642247 -418.69013596 139.8866272 C-418.69775223 137.91660827 -418.68408579 135.94654166 -418.66943359 133.9765625 C-418.66704681 132.85531982 -418.66466003 131.73407715 -418.66220093 130.57885742 C-418.28125 127.80859375 -418.28125 127.80859375 -417.00479126 125.94735718 C-413.85289198 123.86486127 -410.00244282 124.38401901 -406.34375 124.41015625 C-405.46726807 124.40728607 -404.59078613 124.40441589 -403.68774414 124.40145874 C-401.83511712 124.39941777 -399.98246858 124.40494997 -398.12988281 124.41748047 C-395.29182821 124.43353391 -392.45519773 124.4176332 -389.6171875 124.3984375 C-387.81770519 124.40041993 -386.01822376 124.40426359 -384.21875 124.41015625 C-383.36869385 124.40408356 -382.5186377 124.39801086 -381.64282227 124.39175415 C-375.77649881 124.46189368 -375.77649881 124.46189368 -373.56047058 126.01322937 C-371.85141879 128.41185456 -371.88439712 129.98864156 -371.84887695 132.92260742 C-371.81918571 134.48388618 -371.81918571 134.48388618 -371.78889465 136.07670593 C-371.78250473 137.1986586 -371.77611481 138.32061127 -371.76953125 139.4765625 C-371.75158005 140.62651199 -371.73362885 141.77646149 -371.71513367 142.96125793 C-371.66088739 146.63949907 -371.62708829 150.31760939 -371.59375 153.99609375 C-371.56058966 156.48764847 -371.52610122 158.9791859 -371.49023438 161.47070312 C-371.40515265 167.58321603 -371.33686344 173.69574557 -371.28125 179.80859375 C-368.64125 179.80859375 -366.00125 179.80859375 -363.28125 179.80859375 C-363.28125 158.68859375 -363.28125 137.56859375 -363.28125 115.80859375 C-376.8628125 115.71578125 -376.8628125 115.71578125 -390.71875 115.62109375 C-393.56040771 115.59378174 -396.40206543 115.56646973 -399.32983398 115.53833008 C-401.60399959 115.52956111 -403.87816994 115.52191814 -406.15234375 115.515625 C-407.31544067 115.5002771 -408.4785376 115.4849292 -409.67687988 115.46911621 C-417.34196905 115.46666965 -425.67762935 115.5330669 -431.21875 121.55859375 Z M-403.28125 139.80859375 C-403.28125 153.00859375 -403.28125 166.20859375 -403.28125 179.80859375 C-398.00125 179.80859375 -392.72125 179.80859375 -387.28125 179.80859375 C-387.28125 166.60859375 -387.28125 153.40859375 -387.28125 139.80859375 C-392.56125 139.80859375 -397.84125 139.80859375 -403.28125 139.80859375 Z M-179.28125 139.80859375 C-179.28125 153.00859375 -179.28125 166.20859375 -179.28125 179.80859375 C-174.00125 179.80859375 -168.72125 179.80859375 -163.28125 179.80859375 C-163.28125 166.60859375 -163.28125 153.40859375 -163.28125 139.80859375 C-168.56125 139.80859375 -173.84125 139.80859375 -179.28125 139.80859375 Z M-435.28125 355.80859375 C-436.21149551 369.92496628 -436.21149551 369.92496628 -430.9921875 382.38671875 C-425.52314081 387.47556433 -418.84932589 388.05831887 -411.69835091 388.06306934 C-410.59621395 388.06787906 -410.59621395 388.06787906 -409.47181159 388.07278594 C-407.01434086 388.08107494 -404.55711454 388.07516556 -402.09963989 388.06929016 C-400.31809735 388.07231135 -398.53655611 388.07620066 -396.75501716 388.08088273 C-391.8627059 388.09117571 -386.97046781 388.08897759 -382.07815051 388.08470213 C-376.80060709 388.08223728 -371.52308139 388.09124608 -366.24554443 388.09873962 C-355.90754939 388.11149531 -345.56958031 388.11327923 -335.23157872 388.11093936 C-326.82935922 388.10915702 -318.42714761 388.11090404 -310.02492905 388.1151638 C-308.82951993 388.11575899 -307.63411081 388.11635418 -306.40247717 388.11696741 C-303.97407549 388.11817915 -301.5456738 388.11939328 -299.11727212 388.12060978 C-276.33864639 388.13148866 -253.56003546 388.12932117 -230.78140889 388.12322494 C-209.93983405 388.11805541 -189.09830594 388.12931155 -168.25674035 388.14832316 C-146.85968605 388.16769194 -125.46265387 388.17595924 -104.06559074 388.1721999 C-92.05154563 388.17028641 -80.03754031 388.17278987 -68.02350235 388.18691444 C-57.7959205 388.19881697 -47.56840292 388.20024578 -37.34082021 388.18812428 C-32.12252817 388.1822277 -26.90435375 388.18115772 -21.68606949 388.19312668 C-16.90801042 388.20395857 -12.13016756 388.20091418 -7.35211872 388.18686499 C-5.62472311 388.18421064 -3.8973107 388.18660772 -2.16993155 388.19460086 C11.30013424 388.72886836 11.30013424 388.72886836 23.28321064 383.53368837 C30.53043277 375.74779481 28.71875 365.81379741 28.71875 355.80859375 C-124.40125 355.80859375 -277.52125 355.80859375 -435.28125 355.80859375 Z M-237.28125 403.80859375 C-244.0482311 419.52185219 -244.0482311 419.52185219 -247.28125 435.80859375 C-218.24125 435.80859375 -189.20125 435.80859375 -159.28125 435.80859375 C-162.2216843 425.02700133 -165.74728779 414.41048037 -169.28125 403.80859375 C-191.72125 403.80859375 -214.16125 403.80859375 -237.28125 403.80859375 Z M-283.28125 451.80859375 C-283.28125 454.44859375 -283.28125 457.08859375 -283.28125 459.80859375 C-230.48125 459.80859375 -177.68125 459.80859375 -123.28125 459.80859375 C-123.28125 457.16859375 -123.28125 454.52859375 -123.28125 451.80859375 C-176.08125 451.80859375 -228.88125 451.80859375 -283.28125 451.80859375 Z " fill="#000000" transform="translate(459.28125,28.19140625)"/>
<path d="M0 0 C5.34343708 3.2450487 9.74442951 7.91787205 11.63671875 13.890625 C13.8041572 19.13681921 18.75486733 20.95503078 23.5625 23.4375 C25.66182015 24.57114287 27.75940812 25.70799792 29.85546875 26.84765625 C30.95552246 27.44078613 32.05557617 28.03391602 33.18896484 28.64501953 C38.83376978 31.74888607 44.34896065 35.06572031 49.875 38.375 C59.17415204 43.91483456 68.50213983 49.39854011 77.875 54.8125 C78.96014893 55.44075684 80.04529785 56.06901367 81.16333008 56.71630859 C82.17806396 57.30105957 83.19279785 57.88581055 84.23828125 58.48828125 C85.12427002 58.99915283 86.01025879 59.51002441 86.9230957 60.03637695 C89.76314621 61.6112639 92.64866438 63.06695297 95.5625 64.5 C95.98660156 64.02949219 96.41070312 63.55898438 96.84765625 63.07421875 C103.03148805 56.50984345 107.50411428 54.36939589 116.5 54.0625 C123.74303756 54.25431773 128.26846949 55.36313993 133.52734375 60.37109375 C139.9091668 67.27494731 141.04292252 72.70167929 140.8671875 82.0546875 C140.17189797 89.91680755 136.51495981 94.04958704 130.66015625 99.0546875 C124.15892443 103.53412097 117.19109083 103.17463728 109.5625 102.5 C102.9283701 100.82557105 98.30594196 96.06303907 94.5625 90.5 C94.20800781 89.38109375 93.85351562 88.2621875 93.48828125 87.109375 C91.3208428 81.86318079 86.37013267 80.04496922 81.5625 77.5625 C79.46317985 76.42885713 77.36559188 75.29200208 75.26953125 74.15234375 C74.16947754 73.55921387 73.06942383 72.96608398 71.93603516 72.35498047 C66.29123022 69.25111393 60.77603935 65.93427969 55.25 62.625 C45.95084796 57.08516544 36.62286017 51.60145989 27.25 46.1875 C26.16485107 45.55924316 25.07970215 44.93098633 23.96166992 44.28369141 C22.94693604 43.69894043 21.93220215 43.11418945 20.88671875 42.51171875 C20.00072998 42.00084717 19.11474121 41.48997559 18.2019043 40.96362305 C15.36185379 39.3887361 12.47633562 37.93304703 9.5625 36.5 C9.13839844 36.97050781 8.71429688 37.44101562 8.27734375 37.92578125 C2.09351195 44.49015655 -2.37911428 46.63060411 -11.375 46.9375 C-20.81276522 46.71731884 -25.49131464 43.38279462 -32.4375 37.5 C-32.97415283 37.91137207 -33.51080566 38.32274414 -34.0637207 38.74658203 C-43.63203777 46.07494378 -53.21371194 53.37867304 -62.9375 60.5 C-69.66250973 65.42561714 -76.31766554 70.43394897 -82.9375 75.5 C-89.94621253 80.85726427 -96.97707437 86.18197676 -104.0625 91.4375 C-104.86236328 92.03498047 -105.66222656 92.63246094 -106.48632812 93.24804688 C-107.22560547 93.79396484 -107.96488281 94.33988281 -108.7265625 94.90234375 C-109.37318848 95.38179443 -110.01981445 95.86124512 -110.68603516 96.35522461 C-112.4375 97.5 -112.4375 97.5 -115.4375 98.5 C-115.52 99.36625 -115.6025 100.2325 -115.6875 101.125 C-117.20182408 107.93945837 -121.82409606 112.62546755 -127.4375 116.5 C-133.88365122 119.72307561 -141.973414 119.62671819 -148.8828125 117.8828125 C-154.26140791 115.49935649 -158.09553932 111.25489089 -161.4375 106.5 C-161.80302979 105.5411792 -162.16855957 104.5823584 -162.54516602 103.59448242 C-165.02748766 99.53520918 -167.98638592 98.42448142 -172.2578125 96.79296875 C-173.05336044 96.46983704 -173.84890839 96.14670532 -174.66856384 95.81378174 C-177.29268526 94.75270286 -179.92717748 93.72040696 -182.5625 92.6875 C-184.38814882 91.95469526 -186.21292736 91.21971895 -188.03686523 90.48266602 C-191.86129739 88.93907554 -195.68940027 87.40512029 -199.52001953 85.87695312 C-208.30034573 82.36329718 -217.02595346 78.71761231 -225.7555542 75.08023071 C-230.13828068 73.25535366 -234.52430166 71.43843666 -238.91015625 69.62109375 C-240.38160806 69.01102555 -241.85304541 68.40092249 -243.32446289 67.79077148 C-244.35176514 67.36481689 -245.37906738 66.9388623 -246.4375 66.5 C-246.73551514 67.12632324 -247.03353027 67.75264648 -247.34057617 68.39794922 C-248.54473859 70.70550283 -249.77250725 71.95005048 -251.75 73.625 C-252.32363281 74.12257813 -252.89726562 74.62015625 -253.48828125 75.1328125 C-259.86513049 79.60555245 -266.94342641 79.1627412 -274.4375 78.5 C-281.19372866 76.79475379 -285.45570677 71.99708677 -289.4375 66.5 C-292.89292072 60.21741688 -292.92380331 53.37715349 -291.15625 46.59765625 C-288.84642735 39.85648906 -283.45418349 34.50834175 -277.140625 31.3515625 C-270.66746428 29.31232979 -262.27246931 29.22043517 -256 32 C-250.87550922 35.1010867 -246.46569189 39.80295092 -244.32983398 45.40551758 C-241.84751234 49.46479082 -238.88861408 50.57551858 -234.6171875 52.20703125 C-233.82163956 52.53016296 -233.02609161 52.85329468 -232.20643616 53.18621826 C-229.58231474 54.24729714 -226.94782252 55.27959304 -224.3125 56.3125 C-222.48685118 57.04530474 -220.66207264 57.78028105 -218.83813477 58.51733398 C-215.01370261 60.06092446 -211.18559973 61.59487971 -207.35498047 63.12304688 C-198.57465427 66.63670282 -189.84904654 70.28238769 -181.1194458 73.91976929 C-176.73671932 75.74464634 -172.35069834 77.56156334 -167.96484375 79.37890625 C-166.49339194 79.98897445 -165.02195459 80.59907751 -163.55053711 81.20922852 C-162.52323486 81.63518311 -161.49593262 82.0611377 -160.4375 82.5 C-160.13948486 81.87367676 -159.84146973 81.24735352 -159.53442383 80.60205078 C-158.33026141 78.29449717 -157.10249275 77.04994952 -155.125 75.375 C-154.55136719 74.87742187 -153.97773438 74.37984375 -153.38671875 73.8671875 C-147.02141855 69.40254808 -139.92048168 69.81356567 -132.4375 70.5 C-126.7827749 72.1474396 -122.85482387 75.75892374 -118.4375 79.5 C-117.90084717 79.08862793 -117.36419434 78.67725586 -116.8112793 78.25341797 C-107.24296223 70.92505622 -97.66128806 63.62132696 -87.9375 56.5 C-81.21249027 51.57438286 -74.55733446 46.56605103 -67.9375 41.5 C-60.92878747 36.14273573 -53.89792563 30.81802324 -46.8125 25.5625 C-46.01263672 24.96501953 -45.21277344 24.36753906 -44.38867188 23.75195312 C-43.64939453 23.20603516 -42.91011719 22.66011719 -42.1484375 22.09765625 C-41.50181152 21.61820557 -40.85518555 21.13875488 -40.18896484 20.64477539 C-38.4375 19.5 -38.4375 19.5 -35.4375 18.5 C-35.355 17.63375 -35.2725 16.7675 -35.1875 15.875 C-33.67317592 9.06054163 -29.05090394 4.37453245 -23.4375 0.5 C-16.64015448 -2.89867276 -6.97604849 -3.09134698 0 0 Z M-16.8125 17.125 C-18.92456506 20.21186432 -19.04945145 21.8282913 -18.4375 25.5 C-16.9375 28 -16.9375 28 -14.4375 29.5 C-10.7657913 30.11195145 -9.14936432 29.98706506 -6.0625 27.875 C-3.95043494 24.78813568 -3.82554855 23.1717087 -4.4375 19.5 C-5.9375 17 -5.9375 17 -8.4375 15.5 C-12.1092087 14.88804855 -13.72563568 15.01293494 -16.8125 17.125 Z M-272.8125 49.125 C-274.92456506 52.21186432 -275.04945145 53.8282913 -274.4375 57.5 C-272.9375 60 -272.9375 60 -270.4375 61.5 C-266.7657913 62.11195145 -265.14936432 61.98706506 -262.0625 59.875 C-259.95043494 56.78813568 -259.82554855 55.1717087 -260.4375 51.5 C-261.9375 49 -261.9375 49 -264.4375 47.5 C-268.1092087 46.88804855 -269.72563568 47.01293494 -272.8125 49.125 Z M111.1875 73.125 C109.07543494 76.21186432 108.95054855 77.8282913 109.5625 81.5 C111.0625 84 111.0625 84 113.5625 85.5 C117.2342087 86.11195145 118.85063568 85.98706506 121.9375 83.875 C124.04956506 80.78813568 124.17445145 79.1717087 123.5625 75.5 C122.0625 73 122.0625 73 119.5625 71.5 C115.8907913 70.88804855 114.27436432 71.01293494 111.1875 73.125 Z M-144.8125 89.125 C-146.92456506 92.21186432 -147.04945145 93.8282913 -146.4375 97.5 C-144.9375 100 -144.9375 100 -142.4375 101.5 C-138.7657913 102.11195145 -137.14936432 101.98706506 -134.0625 99.875 C-131.95043494 96.78813568 -131.82554855 95.1717087 -132.4375 91.5 C-133.9375 89 -133.9375 89 -136.4375 87.5 C-140.1092087 86.88804855 -141.72563568 87.01293494 -144.8125 89.125 Z " fill="#000000" transform="translate(331.4375,241.5)"/>
<path d="M0 0 C0.77415253 -0.0065712 1.54830505 -0.0131424 2.34591675 -0.01991272 C4.91306652 -0.0396571 7.48015781 -0.05130995 10.04736328 -0.0612793 C10.92314152 -0.06535482 11.79891975 -0.06943035 12.70123672 -0.07362938 C17.3353273 -0.0944936 21.96938822 -0.10879457 26.60351562 -0.11816406 C31.39443961 -0.1292377 36.18490031 -0.16364737 40.97566032 -0.20333576 C44.65594356 -0.22945416 48.33611553 -0.23785156 52.01648331 -0.24144554 C53.78275817 -0.24632281 55.54902769 -0.25796912 57.31521225 -0.27648354 C59.78603836 -0.30077728 62.25565405 -0.29992847 64.7265625 -0.29296875 C65.45709839 -0.30577881 66.18763428 -0.31858887 66.94030762 -0.33178711 C70.39556656 -0.29628135 72.17881149 -0.06674646 74.94485474 2.08137512 C76.62298579 4.35343136 77.03625392 5.38800138 76.99267578 8.17700195 C77.00814453 9.16700195 77.00814453 9.16700195 77.02392578 10.17700195 C76.23658348 13.14111413 74.88568208 14.2861834 72.49267578 16.17700195 C69.48013306 16.49411011 69.48013306 16.49411011 65.90527344 16.24682617 C64.54649214 16.16973094 63.18768546 16.09308211 61.82885742 16.01681519 C61.10973175 15.96911861 60.39060608 15.92142204 59.64968872 15.87228012 C55.78723691 15.63017728 51.92114142 15.49640938 48.05371094 15.3605957 C46.840987 15.31789708 46.840987 15.31789708 45.60376358 15.27433586 C14.22208945 13.14655511 14.22208945 13.14655511 -13.12417603 25.86349487 C-18.69857171 31.40286715 -23.52660689 37.65443425 -27.66894531 44.32543945 C-29.50732422 47.17700195 -29.50732422 47.17700195 -31.50732422 48.17700195 C-38.55945692 48.74572233 -38.55945692 48.74572233 -42.00732422 46.67700195 C-43.70641669 43.84518118 -44.2671356 41.59179784 -44.06152344 38.27978516 C-41.88876284 30.03573801 -30.510964 22.029703 -24.5534668 16.09277344 C-22.67817859 14.22290442 -20.80836957 12.34767296 -18.93896484 10.47192383 C-17.74722856 9.28084734 -16.55518267 8.09008055 -15.36279297 6.8996582 C-14.80448288 6.33932388 -14.24617279 5.77898956 -13.67094421 5.20167542 C-8.9575161 0.51693993 -6.46976235 0.02368219 0 0 Z " fill="#000000" transform="translate(379.50732421875,159.822998046875)"/>
<path d="M0 0 C0.93050171 -0.00700928 1.86100342 -0.01401855 2.81970215 -0.02124023 C5.89572993 -0.03884649 8.97083785 -0.02718794 12.046875 -0.01367188 C14.18392107 -0.01636603 16.32096594 -0.0202478 18.45800781 -0.02526855 C22.93696767 -0.03116718 27.41560847 -0.02258871 31.89453125 -0.00390625 C37.63829952 0.01888325 43.3813202 0.00576216 49.12506104 -0.01819611 C53.53798057 -0.03264409 57.9507226 -0.02805263 62.36364746 -0.01768494 C64.48156828 -0.0150149 66.59950517 -0.01829712 68.71740723 -0.02760315 C71.67662295 -0.03775205 74.63462479 -0.02229048 77.59375 0 C78.47075562 -0.00809692 79.34776123 -0.01619385 80.25134277 -0.02453613 C86.18484028 0.05834635 86.18484028 0.05834635 89.33886719 2.42492676 C90.91627877 4.68895613 91.33954845 5.78647741 91.296875 8.51757812 C91.31234375 9.50757813 91.31234375 9.50757813 91.328125 10.51757812 C90.51456318 13.58039909 89.34180405 14.60802586 86.796875 16.51757812 C83.73403347 17.12162149 80.70727013 17.06390172 77.59375 17.03515625 C76.66324829 17.04216553 75.73274658 17.0491748 74.77404785 17.05639648 C71.69802007 17.07400274 68.62291215 17.06234419 65.546875 17.04882812 C63.40982893 17.05152228 61.27278406 17.05540405 59.13574219 17.0604248 C54.65678233 17.06632343 50.17814153 17.05774496 45.69921875 17.0390625 C39.95545048 17.016273 34.2124298 17.02939409 28.46868896 17.05335236 C24.05576943 17.06780034 19.6430274 17.06320888 15.23010254 17.05284119 C13.11218172 17.05017115 10.99424483 17.05345337 8.87634277 17.0627594 C5.91712705 17.0729083 2.95912521 17.05744673 0 17.03515625 C-0.87700562 17.04325317 -1.75401123 17.0513501 -2.65759277 17.05969238 C-8.59109028 16.9768099 -8.59109028 16.9768099 -11.74511719 14.61022949 C-13.32252877 12.34620012 -13.74579845 11.24867884 -13.703125 8.51757812 C-13.71859375 7.52757812 -13.71859375 7.52757812 -13.734375 6.51757812 C-11.86960654 -0.50272668 -6.00604586 -0.05545061 0 0 Z " fill="#000000" transform="translate(53.203125,231.482421875)"/>
<path d="M0 0 C1.26811523 -0.01260864 2.53623047 -0.02521729 3.84277344 -0.03820801 C5.22331295 -0.03104817 6.60384739 -0.02284418 7.984375 -0.01367188 C9.40397406 -0.0163675 10.82357131 -0.02025051 12.24316406 -0.02526855 C15.21567394 -0.03116045 18.18770241 -0.02261142 21.16015625 -0.00390625 C24.96696287 0.01888413 28.77264149 0.00575925 32.57940674 -0.01819611 C35.51001456 -0.03266301 38.44035574 -0.02804423 41.37097168 -0.01768494 C42.77437474 -0.01502007 44.17780215 -0.01827905 45.58117676 -0.02760315 C47.54369635 -0.03778128 49.50630102 -0.01951228 51.46875 0 C52.58475586 0.00318237 53.70076172 0.00636475 54.85058594 0.00964355 C58.37643133 0.63066636 59.55273304 1.73650375 61.734375 4.51757812 C62.265625 6.51757812 62.265625 6.51757812 62.234375 8.51757812 C62.24984375 9.50757813 62.24984375 9.50757813 62.265625 10.51757812 C61.48338263 13.46249057 60.08885796 14.61339613 57.734375 16.51757812 C54.85058594 17.0255127 54.85058594 17.0255127 51.46875 17.03515625 C50.20063477 17.04776489 48.93251953 17.06037354 47.62597656 17.07336426 C46.24543705 17.06620442 44.86490261 17.05800043 43.484375 17.04882812 C42.06477594 17.05152375 40.64517869 17.05540676 39.22558594 17.0604248 C36.25307606 17.0663167 33.28104759 17.05776767 30.30859375 17.0390625 C26.50178713 17.01627212 22.69610851 17.029397 18.88934326 17.05335236 C15.95873544 17.06781926 13.02839426 17.06320048 10.09777832 17.05284119 C8.69437526 17.05017632 7.29094785 17.0534353 5.88757324 17.0627594 C3.92505365 17.07293753 1.96244898 17.05466853 0 17.03515625 C-1.11600586 17.03197388 -2.23201172 17.0287915 -3.38183594 17.0255127 C-6.90768133 16.40448989 -8.08398304 15.2986525 -10.265625 12.51757812 C-10.796875 10.51757812 -10.796875 10.51757812 -10.765625 8.51757812 C-10.78109375 7.52757812 -10.78109375 7.52757812 -10.796875 6.51757812 C-9.30398497 0.89728626 -5.23640274 0.01493199 0 0 Z " fill="#000000" transform="translate(330.265625,343.482421875)"/>
<path d="M0 0 C1.10794922 -0.01260864 2.21589844 -0.02521729 3.35742188 -0.03820801 C4.54916016 -0.03011108 5.74089844 -0.02201416 6.96875 -0.01367188 C8.19658203 -0.01749878 9.42441406 -0.02132568 10.68945312 -0.02526855 C13.28516459 -0.02799029 15.88090336 -0.02061099 18.4765625 -0.00390625 C22.45374599 0.01749738 26.42912282 -0.0037015 30.40625 -0.02929688 C32.92708733 -0.02665365 35.44792353 -0.02152878 37.96875 -0.01367188 C39.16048828 -0.0217688 40.35222656 -0.02986572 41.58007812 -0.03820801 C43.24200195 -0.01929504 43.24200195 -0.01929504 44.9375 0 C45.91138672 0.00318237 46.88527344 0.00636475 47.88867188 0.00964355 C51.19021681 0.65961178 52.38452655 1.93295409 54.46875 4.51757812 C55 6.51757812 55 6.51757812 54.96875 8.51757812 C54.98421875 9.50757813 54.98421875 9.50757813 55 10.51757812 C54.2245785 13.43681202 52.78007479 14.6111988 50.46875 16.51757812 C47.88867188 17.0255127 47.88867188 17.0255127 44.9375 17.03515625 C43.82955078 17.04776489 42.72160156 17.06037354 41.58007812 17.07336426 C40.38833984 17.06526733 39.19660156 17.05717041 37.96875 17.04882812 C36.12700195 17.05456848 36.12700195 17.05456848 34.24804688 17.0604248 C31.65233541 17.06314654 29.05659664 17.05576724 26.4609375 17.0390625 C22.48375401 17.01765887 18.50837718 17.03885775 14.53125 17.06445312 C12.01041267 17.0618099 9.48957647 17.05668503 6.96875 17.04882812 C5.77701172 17.05692505 4.58527344 17.06502197 3.35742188 17.07336426 C1.69549805 17.05445129 1.69549805 17.05445129 0 17.03515625 C-0.97388672 17.03197388 -1.94777344 17.0287915 -2.95117188 17.0255127 C-6.25271681 16.37554447 -7.44702655 15.10220216 -9.53125 12.51757812 C-10.0625 10.51757812 -10.0625 10.51757812 -10.03125 8.51757812 C-10.04671875 7.52757812 -10.04671875 7.52757812 -10.0625 6.51757812 C-8.67664018 1.3002235 -4.95665502 0.01619688 0 0 Z " fill="#000000" transform="translate(49.53125,391.482421875)"/>
<path d="M0 0 C1.04269043 -0.00574036 1.04269043 -0.00574036 2.10644531 -0.01159668 C3.57228041 -0.0143118 5.03816428 -0.00697835 6.50390625 0.00976562 C8.74328975 0.03118581 10.97946587 0.00995557 13.21875 -0.015625 C14.64584039 -0.01298165 16.07292879 -0.0078565 17.5 0 C19.44132812 0.00676758 19.44132812 0.00676758 21.421875 0.01367188 C25.25919979 0.61043894 26.44070951 1.47408051 28.75 4.53125 C29.28125 6.53125 29.28125 6.53125 29.25 8.53125 C29.2603125 9.19125 29.270625 9.85125 29.28125 10.53125 C28.48927074 13.51281897 27.16446325 14.62735121 24.75 16.53125 C21.421875 17.04882812 21.421875 17.04882812 17.5 17.0625 C16.80487305 17.0663269 16.10974609 17.07015381 15.39355469 17.07409668 C13.92771959 17.0768118 12.46183572 17.06947835 10.99609375 17.05273438 C8.75671025 17.03131419 6.52053413 17.05254443 4.28125 17.078125 C2.85415961 17.07548165 1.42707121 17.0703565 0 17.0625 C-1.29421875 17.05798828 -2.5884375 17.05347656 -3.921875 17.04882812 C-7.75919979 16.45206106 -8.94070951 15.58841949 -11.25 12.53125 C-11.78125 10.53125 -11.78125 10.53125 -11.75 8.53125 C-11.76546875 7.54125 -11.76546875 7.54125 -11.78125 6.53125 C-10.16044839 0.42940865 -5.57509951 0.01943511 0 0 Z " fill="#000000" transform="translate(363.25,319.46875)"/>
<path d="M0 0 C0.7115625 -0.01546875 1.423125 -0.0309375 2.15625 -0.046875 C5.60314984 -0.02115187 7.64752229 0.24568064 10.46875 2.28125 C12.08267327 4.61979188 12.54379543 5.69709278 12.5 8.5 C12.5103125 9.16 12.520625 9.82 12.53125 10.5 C11.72167176 13.54782397 10.55457707 14.65682414 8 16.5 C5.16934716 16.90100915 2.81653341 17.06122899 0 17 C-0.7115625 17.01546875 -1.423125 17.0309375 -2.15625 17.046875 C-5.60314984 17.02115187 -7.64752229 16.75431936 -10.46875 14.71875 C-12.08267327 12.38020812 -12.54379543 11.30290722 -12.5 8.5 C-12.51546875 7.51 -12.51546875 7.51 -12.53125 6.5 C-10.82633794 0.08150756 -5.75061521 -0.12501337 0 0 Z " fill="#000000" transform="translate(124,391.5)"/>
<path d="M0 0 C0.7115625 -0.01546875 1.423125 -0.0309375 2.15625 -0.046875 C5.60314984 -0.02115187 7.64752229 0.24568064 10.46875 2.28125 C12.08267327 4.61979188 12.54379543 5.69709278 12.5 8.5 C12.5103125 9.16 12.520625 9.82 12.53125 10.5 C11.72167176 13.54782397 10.55457707 14.65682414 8 16.5 C5.16934716 16.90100915 2.81653341 17.06122899 0 17 C-0.7115625 17.01546875 -1.423125 17.0309375 -2.15625 17.046875 C-5.60314984 17.02115187 -7.64752229 16.75431936 -10.46875 14.71875 C-12.08267327 12.38020812 -12.54379543 11.30290722 -12.5 8.5 C-12.51546875 7.51 -12.51546875 7.51 -12.53125 6.5 C-10.82633794 0.08150756 -5.75061521 -0.12501337 0 0 Z " fill="#000000" transform="translate(164,231.5)"/>
</svg>
