<?xml version="1.0" encoding="UTF-8"?>
<svg version="1.1" xmlns="http://www.w3.org/2000/svg" width="512" height="512">
<path d="M0 0 C4.93740604 3.97581385 8.39635489 8.59519411 10.7734375 14.4921875 C10.7734375 15.4821875 10.7734375 16.4721875 10.7734375 17.4921875 C11.57040039 17.48171387 12.36736328 17.47124023 13.18847656 17.46044922 C16.80009812 17.41886978 20.41166929 17.39285489 24.0234375 17.3671875 C25.27769531 17.35042969 26.53195313 17.33367187 27.82421875 17.31640625 C29.02949219 17.30996094 30.23476562 17.30351562 31.4765625 17.296875 C33.14187012 17.28116455 33.14187012 17.28116455 34.84082031 17.26513672 C37.74065668 17.48964952 39.37173167 17.89081606 41.7734375 19.4921875 C42.92754004 21.80039258 42.8944672 23.10003026 42.88696289 25.66650391 C42.88684959 26.95761581 42.88684959 26.95761581 42.88673401 28.27481079 C42.88157272 29.20506073 42.87641144 30.13531067 42.87109375 31.09375 C42.8696788 32.04535004 42.86826385 32.99695007 42.86680603 33.97738647 C42.86119762 37.02401847 42.84864369 40.07057763 42.8359375 43.1171875 C42.83092358 45.17968644 42.82636049 47.24218653 42.82226562 49.3046875 C42.81122546 54.36721567 42.79395517 59.42968923 42.7734375 64.4921875 C44.70376831 64.47647705 44.70376831 64.47647705 46.6730957 64.46044922 C51.44211044 64.42428206 56.21111302 64.40129896 60.98022461 64.38232422 C63.0453495 64.37225915 65.11046013 64.35860596 67.17553711 64.34130859 C70.14180014 64.31708257 73.10787494 64.30570953 76.07421875 64.296875 C76.9993074 64.28655243 77.92439606 64.27622986 78.8775177 64.26559448 C79.73818344 64.26544342 80.59884918 64.26529236 81.4855957 64.26513672 C82.62143852 64.25847488 82.62143852 64.25847488 83.78022766 64.25167847 C85.7734375 64.4921875 85.7734375 64.4921875 88.7734375 66.4921875 C89.92040608 69.52346161 89.92159275 71.04423867 88.90112305 74.12963867 C86.42557765 76.87844564 85.93117887 76.86668512 82.39379883 77.05981445 C80.54749952 77.05902273 78.70108302 77.03076505 76.85546875 76.98046875 C75.39689705 76.96985664 75.39689705 76.96985664 73.90885925 76.95903015 C70.80043888 76.93102158 67.69381416 76.86827025 64.5859375 76.8046875 C62.47984371 76.77961303 60.3737217 76.75679838 58.26757812 76.73632812 C53.10161491 76.6854219 47.93953767 76.58758122 42.7734375 76.4921875 C42.7734375 87.7121875 42.7734375 98.9321875 42.7734375 110.4921875 C46.0734375 110.4921875 49.3734375 110.4921875 52.7734375 110.4921875 C55.8984375 111.5546875 55.8984375 111.5546875 57.7734375 113.4921875 C58.60973971 119.34630298 58.60973971 119.34630298 56.53881836 122.18383789 C53.05325938 124.7670367 48.51218539 123.96058106 44.3359375 123.9296875 C43.38138672 123.94966797 42.42683594 123.96964844 41.44335938 123.99023438 C40.52232422 123.98958984 39.60128906 123.98894531 38.65234375 123.98828125 C37.8126001 123.99013428 36.97285645 123.9919873 36.10766602 123.99389648 C32.72767672 123.2674162 31.70129434 122.38629944 29.7734375 119.4921875 C29.22660389 116.22107092 29.30856708 113.00361613 29.3828125 109.6953125 C29.38847229 108.74654236 29.39413208 107.79777222 29.39996338 106.82025146 C29.42233141 103.79371414 29.47252892 100.76836621 29.5234375 97.7421875 C29.54350193 95.6888192 29.5617528 93.63543231 29.578125 91.58203125 C29.62219769 86.55162594 29.69122859 81.52210829 29.7734375 76.4921875 C27.22461874 76.75389994 24.6789684 77.03076373 22.1328125 77.31640625 C21.41786621 77.3882312 20.70291992 77.46005615 19.96630859 77.53405762 C12.29917994 78.4188952 6.97338661 81.53838833 1.3359375 86.7421875 C-30.74658505 143.20742718 -3.86973744 216.55002692 -4.2265625 281.4921875 C119.8534375 281.4921875 243.9334375 281.4921875 371.7734375 281.4921875 C389.11416475 174.96453028 389.11416475 174.96453028 363.7734375 84.4921875 C358.10840587 79.68094883 352.63381566 78.05091182 345.4140625 77.3203125 C344.67687988 77.2373291 343.93969727 77.1543457 343.18017578 77.06884766 C341.37893638 76.86741246 339.57630318 76.67850675 337.7734375 76.4921875 C337.79438477 77.77383789 337.81533203 79.05548828 337.83691406 80.37597656 C337.90932416 85.13188501 337.9552411 89.88774474 337.99316406 94.64404297 C338.01327719 96.70239455 338.04057147 98.76068902 338.07519531 100.81884766 C338.12372633 103.77781263 338.14640916 106.73602211 338.1640625 109.6953125 C338.18470764 110.61523987 338.20535278 111.53516724 338.22662354 112.48297119 C338.22884422 118.8085278 338.22884422 118.8085278 336.05395508 122.07348633 C333.42548274 123.70864881 331.97283055 123.995074 328.89453125 123.98828125 C327.97349609 123.98892578 327.05246094 123.98957031 326.10351562 123.99023438 C325.14896484 123.97025391 324.19441406 123.95027344 323.2109375 123.9296875 C322.25251953 123.93677734 321.29410156 123.94386719 320.30664062 123.95117188 C313.30670836 123.88740234 313.30670836 123.88740234 311.00805664 122.18383789 C308.90136395 119.2972898 309.28435533 116.91576271 309.7734375 113.4921875 C311.6484375 111.5546875 311.6484375 111.5546875 314.7734375 110.4921875 C318.0734375 110.4921875 321.3734375 110.4921875 324.7734375 110.4921875 C324.7734375 99.2721875 324.7734375 88.0521875 324.7734375 76.4921875 C320.06126953 76.57919922 320.06126953 76.57919922 315.25390625 76.66796875 C312.21576462 76.70694763 309.1776507 76.73731606 306.1394043 76.7668457 C304.02567098 76.79201113 301.91202485 76.82614676 299.79858398 76.86938477 C296.76263952 76.92994691 293.72784388 76.95837659 290.69140625 76.98046875 C289.74444382 77.00627518 288.79748138 77.0320816 287.82182312 77.05867004 C285.37188379 77.05972062 283.16630184 77.01727219 280.7734375 76.4921875 C278.6105957 74.16479492 278.6105957 74.16479492 277.7734375 71.4921875 C278.4609375 68.2421875 278.4609375 68.2421875 279.7734375 65.4921875 C282.08164258 64.33808496 283.38128026 64.3711578 285.94775391 64.37866211 C287.23886581 64.37877541 287.23886581 64.37877541 288.55606079 64.37889099 C289.48631073 64.38405228 290.41656067 64.38921356 291.375 64.39453125 C292.32660004 64.3959462 293.27820007 64.39736115 294.25863647 64.39881897 C297.30526847 64.40442738 300.35182763 64.41698131 303.3984375 64.4296875 C305.46093644 64.43470142 307.52343653 64.43926451 309.5859375 64.44335938 C314.64846567 64.45439954 319.71093923 64.47166983 324.7734375 64.4921875 C324.76296387 63.20530029 324.75249023 61.91841309 324.74169922 60.5925293 C324.70553206 55.82351456 324.68254896 51.05451198 324.66357422 46.28540039 C324.65350915 44.2202755 324.63985596 42.15516487 324.62255859 40.09008789 C324.59833257 37.12382486 324.58695953 34.15775006 324.578125 31.19140625 C324.56780243 30.2663176 324.55747986 29.34122894 324.54684448 28.3881073 C324.54669342 27.52744156 324.54654236 26.66677582 324.54638672 25.7800293 C324.5419455 25.02280075 324.53750427 24.2655722 324.53292847 23.48539734 C324.7734375 21.4921875 324.7734375 21.4921875 326.7734375 18.4921875 C330.07078396 17.39307201 332.50302495 17.3782419 335.97265625 17.39453125 C337.18115234 17.39775391 338.38964844 17.40097656 339.63476562 17.40429688 C341.5287207 17.41686523 341.5287207 17.41686523 343.4609375 17.4296875 C345.37229492 17.43645508 345.37229492 17.43645508 347.32226562 17.44335938 C350.47270314 17.45515877 353.62304699 17.47162153 356.7734375 17.4921875 C356.99169189 16.31740845 356.99169189 16.31740845 357.21435547 15.11889648 C358.71623723 8.06267557 363.87288575 2.37988047 369.7734375 -1.5078125 C377.53723992 -5.7812217 385.07385633 -6.92890807 393.703125 -4.77734375 C402.9060367 -1.72217659 407.71342829 2.80991459 412.57421875 11.08984375 C416.14770576 18.2484578 416.11160158 27.36299548 413.6796875 34.8671875 C409.3997847 43.97336368 404.0653426 49.36532821 394.578125 52.796875 C386.60433578 54.77366397 378.53780498 54.33662711 371.05859375 50.8828125 C364.11651713 46.65823254 359.80012751 40.93280044 356.7734375 33.4921875 C356.7734375 32.5021875 356.7734375 31.5121875 356.7734375 30.4921875 C350.5034375 30.4921875 344.2334375 30.4921875 337.7734375 30.4921875 C337.7734375 41.7121875 337.7734375 52.9321875 337.7734375 64.4921875 C343.0534375 64.4921875 348.3334375 64.4921875 353.7734375 64.4921875 C365.18366703 67.582458 374.01108986 73.50589364 380.11965847 83.74975395 C384.99686807 93.80067386 384.47160326 103.79696913 384.40454102 114.70751953 C384.40968632 116.84082635 384.41697219 118.97412891 384.42622375 121.10742188 C384.44466557 126.8718233 384.4318455 132.63575945 384.41213346 138.40014124 C384.39569028 144.44660597 384.40456753 150.49304255 384.40965271 156.53952026 C384.41416663 166.68901969 384.39834549 176.8383344 384.37036133 186.98779297 C384.33829551 198.70769158 384.33833427 210.42725744 384.3555761 222.14717972 C384.37145929 233.44316204 384.36469715 244.73902282 384.34763908 256.03499985 C384.34078192 260.83301927 384.34178731 265.63094089 384.34918404 270.42895889 C384.35686546 276.08115858 384.3446598 281.73298112 384.31733513 287.38511658 C384.3104704 289.45466365 384.31033271 291.52424609 384.31755066 293.59379196 C384.37938364 313.63754225 384.37938364 313.63754225 379.7734375 321.4921875 C379.1753125 322.5440625 378.5771875 323.5959375 377.9609375 324.6796875 C371.47323003 333.02102567 364.82485039 337.14171654 354.7734375 340.4921875 C351.74517391 340.58397777 348.74031287 340.6181193 345.7121582 340.60571289 C344.78513092 340.60585892 343.85810364 340.60600494 342.90298462 340.6061554 C339.83503896 340.60545804 336.76715382 340.59767387 333.69921875 340.58984375 C331.5735833 340.58797894 329.44794743 340.58655534 327.3223114 340.58555603 C321.72454647 340.58173579 316.12680743 340.57190969 310.52905273 340.56085205 C304.81820018 340.55062734 299.10734344 340.54605613 293.39648438 340.54101562 C282.18878887 340.530287 270.98111939 340.51269417 259.7734375 340.4921875 C259.7734375 351.7121875 259.7734375 362.9321875 259.7734375 374.4921875 C268.47928725 374.3737034 268.47928725 374.3737034 277.18457031 374.22192383 C278.81410645 374.21068481 278.81410645 374.21068481 280.4765625 374.19921875 C281.58676758 374.1835083 282.69697266 374.16779785 283.84082031 374.15161133 C287.12451254 374.5329592 288.49224318 375.12359501 290.7734375 377.4921875 C291.2734375 380.9921875 291.2734375 380.9921875 290.7734375 384.4921875 C288.31947903 387.23927032 286.77063849 387.49247323 283.07524109 387.86971092 C281.54984268 387.88621478 280.02421186 387.88610721 278.4987793 387.87313843 C277.65697207 387.8778184 276.81516485 387.88249837 275.94784832 387.88732016 C273.12262479 387.89930133 270.29788352 387.88980076 267.47265625 387.88037109 C265.44902259 387.88443541 263.42539114 387.88977649 261.40176392 387.89630127 C255.90185244 387.90999733 250.40210947 387.90466673 244.90219498 387.89516401 C239.15183298 387.88757929 233.4014856 387.89460972 227.65112305 387.89932251 C217.99362594 387.90478352 208.33619761 387.89757936 198.67871094 387.88330078 C187.50649472 387.86697364 176.33444273 387.8722619 165.16223049 387.88878 C155.57743897 387.90238499 145.99269695 387.90431935 136.4078989 387.89646399 C130.68005747 387.89178206 124.95229328 387.89117693 119.22445679 387.90107346 C113.8400235 387.90972647 108.45580238 387.90375162 103.07139206 387.88639069 C101.09285205 387.88241694 99.11429424 387.883575 97.13576126 387.89017868 C94.43963001 387.89834918 91.74418309 387.88812715 89.0480957 387.87313843 C88.2609402 387.87983059 87.47378469 387.88652276 86.66277599 387.89341772 C83.47235578 387.85889935 81.1366497 387.6828671 78.28752136 386.18712807 C76.7734375 384.4921875 76.7734375 384.4921875 76.2734375 380.9921875 C76.7734375 377.4921875 76.7734375 377.4921875 78.41113281 375.79174805 C81.46867849 374.10971873 83.59029017 374.14997315 87.0703125 374.19921875 C88.15666992 374.20671143 89.24302734 374.2142041 90.36230469 374.22192383 C91.73547852 374.24923584 93.10865234 374.27654785 94.5234375 374.3046875 C98.8959375 374.3665625 103.2684375 374.4284375 107.7734375 374.4921875 C107.7734375 363.2721875 107.7734375 352.0521875 107.7734375 340.4921875 C103.55095215 340.53146362 103.55095215 340.53146362 99.24316406 340.5715332 C89.90747197 340.65465044 80.57176288 340.70971798 71.23579788 340.75124836 C65.57936157 340.77726158 59.92330669 340.81250798 54.26708984 340.86938477 C48.80110716 340.92400013 43.33548971 340.95367017 37.86925507 340.96657372 C35.79138191 340.97576078 33.7135271 340.99370024 31.63581085 341.02083778 C17.10497239 341.20295576 5.44325791 340.80203562 -5.6171875 330.17578125 C-13.52861046 321.89951111 -16.37366603 314.12703203 -16.38046265 302.8157959 C-16.3848449 301.93063057 -16.38922715 301.04546525 -16.3937422 300.13347673 C-16.4071187 297.16124795 -16.41330655 294.18904882 -16.41943359 291.21679688 C-16.4273356 289.08791978 -16.43560461 286.95904403 -16.44421387 284.83016968 C-16.47042729 277.83210528 -16.485743 270.83403494 -16.5 263.8359375 C-16.50536037 261.4253794 -16.51073788 259.01482133 -16.51613235 256.60426331 C-16.53776199 246.57431303 -16.55649727 236.54436436 -16.56775475 226.51439667 C-16.58398388 212.15003405 -16.61713592 197.78594237 -16.67415559 183.42168188 C-16.71289548 173.31703868 -16.73239238 163.21246782 -16.73767531 153.10775232 C-16.74132378 147.07551113 -16.75329168 141.04355896 -16.78577805 135.01139832 C-16.81592877 129.33140589 -16.82214528 123.65187629 -16.81039429 117.97182083 C-16.81017413 115.89341631 -16.81843119 113.81498987 -16.83604813 111.73666 C-16.95745764 96.58171102 -15.84142027 85.1585284 -4.8359375 73.69140625 C6.02503772 64.53762025 15.55903903 64.4921875 29.7734375 64.4921875 C29.7734375 53.2721875 29.7734375 42.0521875 29.7734375 30.4921875 C23.5034375 30.4921875 17.2334375 30.4921875 10.7734375 30.4921875 C10.4434375 32.4721875 10.1134375 34.4521875 9.7734375 36.4921875 C5.80436052 43.73775085 -0.90836765 50.44371165 -8.8671875 53.01953125 C-18.89423509 55.02826098 -27.50650638 53.53493043 -36.1875 48.3125 C-41.86033716 44.12599572 -45.05056521 38.0893807 -47.2265625 31.4921875 C-48.67369349 21.48378537 -47.07796461 12.34936151 -40.9765625 4.1796875 C-29.466081 -7.06919215 -13.49200173 -9.13668889 0 0 Z M-31.4765625 13.8671875 C-34.19218091 17.94061512 -35.2805139 21.00852407 -35.1015625 25.9296875 C-33.73264311 31.50314502 -31.91708357 35.75294742 -26.9140625 38.8671875 C-21.97123107 41.29653657 -17.4920186 42.12298775 -12.1640625 40.4921875 C-7.70276766 38.61740212 -4.85498102 35.49393196 -2.2265625 31.4921875 C-0.6963538 26.90156141 -0.285186 22.11678612 -1.9453125 17.48828125 C-4.60149989 12.52935076 -7.89631 9.26893833 -13.2265625 7.4921875 C-21.26841137 6.64786258 -25.78466557 7.85907407 -31.4765625 13.8671875 Z M371.3984375 14.0546875 C368.31099607 18.68584964 368.27415691 23.10180635 368.7734375 28.4921875 C370.47993133 33.42205856 373.26215498 36.86387508 377.7734375 39.4921875 C382.34713252 41.35554473 386.27983517 41.99597129 391.0234375 40.4296875 C396.11968887 38.09939363 399.38064363 34.83843887 401.7109375 29.7421875 C403.26796567 24.99056704 402.72668349 21.05248567 400.7734375 16.4921875 C398.12501987 12.43076571 395.34488645 9.29871556 390.7734375 7.4921875 C382.6044451 6.31541472 377.07267648 7.93248229 371.3984375 14.0546875 Z M-4.2265625 294.4921875 C-4.2265625 305.89332938 -4.04618819 313.58066062 3.80859375 321.80078125 C9.93155831 327.07164339 16.56677487 328.61366012 24.51447582 328.62361526 C25.66778462 328.62745641 26.82109341 328.63129755 28.00935096 328.6352551 C29.27197849 328.63438862 30.53460602 328.63352213 31.835495 328.63262939 C33.19386832 328.63521413 34.55224089 328.6382276 35.9106124 328.6416328 C39.64253271 328.6496933 43.37443377 328.65149184 47.10636175 328.65223026 C51.13172951 328.65408247 55.15708733 328.66163066 59.18244934 328.66836548 C67.98419551 328.68194264 76.78593712 328.68797257 85.58769202 328.69237614 C91.08462925 328.69513963 96.58156471 328.69937719 102.07850075 328.70388031 C117.30098072 328.71607223 132.52345928 328.72637166 147.74594402 328.7297554 C148.72006451 328.72997497 149.694185 328.73019453 150.69782429 328.73042075 C151.67426203 328.73063903 152.65069977 328.73085731 153.65672654 328.7310822 C155.63532746 328.73152567 157.61392838 328.73197223 159.5925293 328.73242188 C160.57398156 328.7326433 161.55543382 328.73286473 162.56662706 328.73309287 C178.4672298 328.73704032 194.36778669 328.75449304 210.26837172 328.7777814 C226.59725932 328.80150381 242.92612392 328.81395766 259.25502902 328.81512332 C268.42148098 328.81603959 277.58787321 328.8217797 286.7543087 328.83994293 C294.5602347 328.85535592 302.36608249 328.86045731 310.17202082 328.85220483 C314.15300218 328.84830256 318.13382614 328.84920718 322.11478806 328.86326218 C325.76362086 328.87602648 329.41217837 328.8747816 333.06101093 328.86267146 C334.996954 328.85979818 336.93290193 328.87163107 338.86880702 328.88409352 C349.01371973 328.82677493 357.56196563 327.64287173 365.08203125 320.45703125 C371.84062805 312.60582064 371.7734375 304.81379616 371.7734375 294.4921875 C247.6934375 294.4921875 123.6134375 294.4921875 -4.2265625 294.4921875 Z M119.7734375 340.4921875 C119.7734375 351.7121875 119.7734375 362.9321875 119.7734375 374.4921875 C162.0134375 374.4921875 204.2534375 374.4921875 247.7734375 374.4921875 C247.7734375 363.2721875 247.7734375 352.0521875 247.7734375 340.4921875 C205.5334375 340.4921875 163.2934375 340.4921875 119.7734375 340.4921875 Z " fill="#000000" transform="translate(72.2265625,115.5078125)"/>
<path d="M0 0 C0.76772232 0.00091141 1.53544464 0.00182281 2.32643127 0.00276184 C3.11554398 -0.00152328 3.90465668 -0.00580841 4.71768188 -0.01022339 C6.38795512 -0.01597053 8.05825338 -0.01646412 9.72853088 -0.01213074 C12.28568724 -0.00897345 14.84168392 -0.03241442 17.3986969 -0.05778503 C19.02044023 -0.06005825 20.64218667 -0.06076142 22.26393127 -0.05973816 C23.02962936 -0.06894791 23.79532745 -0.07815765 24.58422852 -0.08764648 C29.81802921 -0.04199204 29.81802921 -0.04199204 32.30836487 1.54109192 C33.5924494 3.68986481 33.97109644 5.38529022 34.31080627 7.86604309 C34.43648987 8.74518372 34.56217346 9.62432434 34.69166565 10.53010559 C34.86858948 11.90295715 34.86858948 11.90295715 35.04908752 13.30354309 C35.17863831 14.21877747 35.30818909 15.13401184 35.44166565 16.07698059 C35.91877073 19.52021511 36.36158752 22.82354912 36.36158752 26.30354309 C37.55783752 26.50979309 38.75408752 26.71604309 39.98658752 26.92854309 C46.79139589 28.40926939 53.04613209 31.44676524 59.36158752 34.30354309 C60.36318909 33.44889465 61.36479065 32.59424622 62.39674377 31.71369934 C63.73857407 30.59707133 65.08105677 29.48122697 66.42408752 28.36604309 C67.08086487 27.80207825 67.73764221 27.2381134 68.4143219 26.65705872 C72.56033231 23.24630138 75.75503331 20.79726562 81.36158752 21.30354309 C84.40986859 23.26176692 86.827839 25.73027025 89.36158752 28.30354309 C90.77546027 29.62935456 92.19083241 30.95356882 93.60768127 32.27619934 C95.00742237 33.63680509 96.40455318 35.00010125 97.79908752 36.36604309 C98.51773987 37.04731262 99.23639221 37.72858215 99.9768219 38.43049622 C102.98964929 41.39211407 105.07910122 43.49991826 106.49440002 47.52619934 C106.33986857 50.75772469 105.71389797 52.09666836 103.79908752 54.67854309 C103.25123596 55.44424622 102.7033844 56.20994934 102.13893127 56.99885559 C100.97011895 58.51445839 99.7751512 60.01030652 98.55299377 61.48323059 C97.99482971 62.16643372 97.43666565 62.84963684 96.86158752 63.55354309 C96.33565002 64.15682434 95.80971252 64.76010559 95.26783752 65.38166809 C94.10274854 67.31057853 94.10274854 67.31057853 94.97877502 69.53010559 C95.43510315 70.44533997 95.89143127 71.36057434 96.36158752 72.30354309 C96.94211543 73.59557582 97.5172067 74.89005897 98.08815002 76.18635559 C99.04414415 78.32539245 100.00231101 80.4631722 100.97096252 82.59651184 C103.36158752 87.97039577 103.36158752 87.97039577 103.36158752 91.30354309 C105.22363831 91.4853009 105.22363831 91.4853009 107.12330627 91.67073059 C108.76527278 91.83961857 110.40719776 92.00891069 112.04908752 92.17854309 C112.86570862 92.2571759 113.68232971 92.33580872 114.5236969 92.41682434 C118.74240979 92.86089938 122.55702152 93.27744285 126.36158752 95.30354309 C127.9011863 98.38274064 127.5662387 101.63317957 127.59986877 105.01448059 C127.60794052 105.77902557 127.61601227 106.54357056 127.62432861 107.33128357 C127.63816565 108.9502689 127.64888952 110.56928336 127.65675354 112.18830872 C127.67397362 114.66217875 127.71786103 117.13471455 127.76197815 119.60823059 C127.77210467 121.18113743 127.78062091 122.75405563 127.78736877 124.32698059 C127.80487686 125.06564362 127.82238495 125.80430664 127.84042358 126.56535339 C127.82605304 129.97416529 127.61635257 131.9485792 125.60548401 134.75032043 C123.22030659 136.40133759 121.89382522 136.88649415 119.03346252 137.13166809 C118.23424377 137.20901184 117.43502502 137.28635559 116.61158752 137.36604309 C115.78658752 137.42791809 114.96158752 137.48979309 114.11158752 137.55354309 C113.27111877 137.63088684 112.43065002 137.70823059 111.56471252 137.78791809 C109.49839401 137.97576523 107.43011358 138.14180649 105.36158752 138.30354309 C105.17596252 139.60291809 104.99033752 140.90229309 104.79908752 142.24104309 C104.14214147 145.95672997 103.0959355 148.96390031 101.31861877 152.26057434 C97.94108667 158.48348997 97.94108667 158.48348997 96.36158752 165.30354309 C97.82906895 169.73678111 100.89024751 172.90353515 104.02565002 176.25276184 C106.36158752 179.30354309 106.36158752 179.30354309 106.3127594 182.1431427 C104.6009925 187.83072548 99.97477371 191.5026358 95.8440094 195.58283997 C94.24083661 197.17432499 92.67229747 198.79517096 91.10377502 200.42073059 C90.08488603 201.44350457 89.06411183 202.46440467 88.04127502 203.48323059 C87.12072327 204.40861633 86.20017151 205.33400208 85.25172424 206.28742981 C81.66143546 208.79195801 79.65424621 208.83838584 75.36158752 208.30354309 C72.66627502 206.51838684 72.66627502 206.51838684 70.23658752 204.24104309 C67.09321332 201.06783678 67.09321332 201.06783678 62.94752502 200.37776184 C59.89669971 201.46997574 57.02725558 202.76296512 54.11158752 204.17854309 C41.12540964 210.30354309 41.12540964 210.30354309 35.36158752 210.30354309 C35.24041565 211.4237384 35.11924377 212.54393372 34.99440002 213.69807434 C34.82555485 215.17077946 34.65626056 216.64343313 34.48658752 218.11604309 C34.40795471 218.85403137 34.3293219 219.59201965 34.24830627 220.35237122 C33.81698466 224.0186049 33.44190923 226.18306054 31.36158752 229.30354309 C26.03404624 231.07939019 20.26308922 230.48945532 14.68312073 230.48884583 C12.43577624 230.49103172 10.18892328 230.50919761 7.94166565 230.52815247 C6.5100267 230.53108679 5.07838542 230.53307132 3.64674377 230.53401184 C2.34616028 230.53812073 1.04557678 230.54222961 -0.29441833 230.54646301 C-3.41104973 230.32005955 -5.15094276 230.1540465 -7.63841248 228.30354309 C-9.63153482 222.42907722 -10.15854703 216.46602564 -10.63841248 210.30354309 C-11.83466248 210.09729309 -13.03091248 209.89104309 -14.26341248 209.67854309 C-21.98495931 207.98177006 -30.06439027 204.68622456 -36.63841248 200.30354309 C-40.84395595 200.56937161 -42.97521944 202.13013747 -46.07591248 204.86604309 C-48.7553752 207.00165447 -50.3807422 208.22992301 -53.70091248 209.17854309 C-56.79719326 208.25624669 -57.93037577 207.36691361 -60.29075623 205.24494934 C-60.99514832 204.61201965 -61.69954041 203.97908997 -62.42527771 203.32698059 C-63.15561218 202.65924622 -63.88594666 201.99151184 -64.63841248 201.30354309 C-65.34747742 200.66158997 -66.05654236 200.01963684 -66.78709412 199.35823059 C-68.93283601 197.38911016 -71.03773477 195.3830827 -73.13841248 193.36604309 C-73.86544373 192.70153137 -74.59247498 192.03701965 -75.34153748 191.35237122 C-81.10467336 185.76797921 -81.10467336 185.76797921 -81.39622498 181.15119934 C-80.29123959 175.54083538 -77.30473841 173.00089187 -73.41184998 169.01448059 C-71.27497512 166.43157395 -71.27497512 166.43157395 -72.17356873 163.46760559 C-72.65696716 162.42346497 -73.1403656 161.37932434 -73.63841248 160.30354309 C-74.13828668 159.01532841 -74.62869712 157.72341332 -75.11106873 156.42854309 C-75.90704084 154.35862057 -76.70614196 152.29019977 -77.5153656 150.22541809 C-79.03347943 146.2578787 -80.10128071 142.54754714 -80.63841248 138.30354309 C-82.5178656 138.15658997 -82.5178656 138.15658997 -84.43528748 138.00666809 C-86.08641479 137.85656561 -87.73745221 137.70547195 -89.38841248 137.55354309 C-90.21341248 137.49166809 -91.03841248 137.42979309 -91.88841248 137.36604309 C-92.68763123 137.28869934 -93.48684998 137.21135559 -94.31028748 137.13166809 C-95.41001892 137.0374054 -95.41001892 137.0374054 -96.53196716 136.9412384 C-99.58784044 136.01611775 -100.76905138 134.89928745 -102.63841248 132.30354309 C-103.02427146 129.51991322 -103.17694436 127.14070297 -103.13450623 124.36213684 C-103.13596146 123.59805008 -103.13741669 122.83396332 -103.13891602 122.04672241 C-103.13725955 120.43543169 -103.12572631 118.82412474 -103.10496521 117.21296692 C-103.07596759 114.74573209 -103.08436819 112.28064125 -103.09739685 109.81330872 C-103.09116033 108.24624098 -103.08277006 106.67918002 -103.07200623 105.11213684 C-103.07494186 104.37458664 -103.0778775 103.63703644 -103.0809021 102.87713623 C-103.02734286 99.97377442 -102.96675826 97.81992633 -101.38548279 95.33308411 C-99.18693261 94.03748795 -97.79650056 93.98613998 -95.25169373 94.02229309 C-87.20435751 93.79786916 -87.20435751 93.79786916 -79.63841248 91.30354309 C-75.52020026 86.5547855 -73.83535325 80.32913348 -72.28245544 74.34065247 C-71.63841248 72.30354309 -71.63841248 72.30354309 -69.63841248 69.30354309 C-69.80799736 64.45977491 -74.09422959 60.72978605 -77.04466248 57.16877747 C-79.67274089 53.89513909 -81.34227922 51.52171558 -81.63841248 47.30354309 C-80.50584412 45.37947083 -80.50584412 45.37947083 -78.73606873 43.54963684 C-78.08654236 42.86369446 -77.43701599 42.17775208 -76.76780701 41.47102356 C-76.06510681 40.755755 -75.36240662 40.04048645 -74.63841248 39.30354309 C-73.95247009 38.57151672 -73.26652771 37.83949036 -72.55979919 37.08528137 C-70.42640533 34.81679393 -68.25642824 32.58920005 -66.07591248 30.36604309 C-65.34694763 29.59969543 -64.61798279 28.83334778 -63.8669281 28.04377747 C-60.83049948 24.95815378 -58.52177122 22.64454555 -54.45091248 21.07307434 C-50.74297037 21.3769196 -49.09530256 22.61807205 -46.20091248 24.92854309 C-45.31532654 25.62205872 -44.4297406 26.31557434 -43.51731873 27.03010559 C-41.98417665 28.24080938 -40.46047168 29.46971496 -39.03269958 30.80305481 C-37.26106582 32.32811445 -35.80936857 33.42645115 -33.63841248 34.30354309 C-30.46356231 33.92523415 -27.90104089 32.62500884 -25.07591248 31.17854309 C-23.61891204 30.48289301 -22.15931202 29.79265814 -20.69700623 29.10823059 C-20.00977478 28.78306458 -19.32254333 28.45789856 -18.61448669 28.12287903 C-16.00371156 27.04037825 -13.43986071 26.59563722 -10.63841248 26.30354309 C-10.56493591 24.83594543 -10.56493591 24.83594543 -10.48997498 23.33869934 C-9.16596667 0.12289847 -9.16596667 0.12289847 0 0 Z M3.36158752 12.30354309 C1.87204106 20.28325631 0.56135786 28.27529264 -0.63841248 36.30354309 C-1.31903748 36.43889465 -1.99966248 36.57424622 -2.70091248 36.71369934 C-12.70095755 38.93445403 -23.0629208 42.58654864 -31.63841248 48.30354309 C-38.04667113 48.24916999 -41.40967585 45.69623413 -46.07591248 41.74104309 C-46.71206482 41.22090637 -47.34821716 40.70076965 -48.00364685 40.16487122 C-49.55890027 38.89026503 -51.10014072 37.59859296 -52.63841248 36.30354309 C-57.18897143 40.12019061 -61.48834889 44.05225845 -65.63841248 48.30354309 C-63.88850921 53.42498773 -60.88524163 56.82941629 -57.41575623 60.90119934 C-54.72465784 64.53861803 -54.72465784 64.53861803 -54.63841248 67.30354309 C-56.51577324 72.46010966 -59.11600853 77.24993252 -61.63841248 82.11604309 C-64.37872164 87.44438777 -66.60281148 92.46281111 -67.77513123 98.38557434 C-69.10150569 101.3324063 -70.71156711 101.99580367 -73.63841248 103.30354309 C-76.39500059 103.90863059 -79.14431295 104.21705393 -81.95091248 104.49104309 C-85.75622498 104.89323059 -85.75622498 104.89323059 -89.63841248 105.30354309 C-89.63841248 111.57354309 -89.63841248 117.84354309 -89.63841248 124.30354309 C-84.1343665 125.24927664 -84.1343665 125.24927664 -78.62913513 126.18806458 C-72.8606347 127.19243198 -72.8606347 127.19243198 -70.63841248 128.30354309 C-69.97166443 130.13850403 -69.97166443 130.13850403 -69.37669373 132.53791809 C-69.14804626 133.41633362 -68.9193988 134.29474915 -68.68382263 135.19978333 C-68.44196228 136.14152405 -68.20010193 137.08326477 -67.95091248 138.05354309 C-65.82737327 145.99498871 -63.34960922 152.62663918 -58.95872498 159.61213684 C-57.35830697 162.87452739 -57.10637343 164.70994602 -57.63841248 168.30354309 C-59.38841248 171.19026184 -59.38841248 171.19026184 -61.63841248 173.99104309 C-64.87298371 177.69600425 -64.87298371 177.69600425 -65.63841248 182.30354309 C-63.85264202 184.3067369 -62.07536943 186.14688875 -60.13841248 187.99104309 C-59.35143982 188.75771301 -59.35143982 188.75771301 -58.54856873 189.53987122 C-57.25180344 190.80127018 -55.94595131 192.05331521 -54.63841248 193.30354309 C-50.20780091 191.73213242 -47.3637426 189.54562669 -43.89622498 186.44807434 C-40.4815616 184.71711176 -38.29864839 185.39044355 -34.63841248 186.30354309 C-31.41966248 187.97541809 -31.41966248 187.97541809 -28.13841248 190.05354309 C-21.95088939 193.82088843 -15.82927225 196.18552186 -8.91575623 198.29573059 C-6.06214047 199.17324295 -3.33182544 200.01581645 -0.63841248 201.30354309 C1.70225069 206.23125501 2.3522417 211.96842947 3.36158752 217.30354309 C9.30158752 217.30354309 15.24158752 217.30354309 21.36158752 217.30354309 C22.26737701 212.45868232 22.26737701 212.45868232 23.15602112 207.610672 C24.1393653 202.52576531 24.1393653 202.52576531 26.36158752 200.30354309 C28.73109344 199.54128308 31.09079536 198.84647289 33.48658752 198.17854309 C43.33917345 195.2840427 52.80155846 191.01022914 61.36158752 185.30354309 C68.33840928 185.16400666 72.26376587 188.87618324 77.36158752 193.30354309 C81.26444519 191.71686731 83.69679734 189.17003828 86.61158752 186.17854309 C87.50361877 185.26846497 88.39565002 184.35838684 89.31471252 183.42073059 C89.99018127 182.72205872 90.66565002 182.02338684 91.36158752 181.30354309 C90.96326721 180.77244934 90.5649469 180.24135559 90.15455627 179.69416809 C88.55690002 177.56395976 86.95924377 175.43375142 85.36158752 173.30354309 C84.80084534 172.70026184 84.24010315 172.09698059 83.66236877 171.47541809 C81.7239569 168.23891058 81.94225199 166.0226966 82.36158752 162.30354309 C83.50208602 159.73105394 84.66254516 157.41741511 86.04908752 154.99104309 C89.73571645 148.2280527 91.93153295 141.63581937 93.3740387 134.06794739 C93.86549377 131.87385559 93.86549377 131.87385559 95.36158752 128.30354309 C98.61158752 126.86604309 98.61158752 126.86604309 102.36158752 126.30354309 C103.45342346 126.09471497 104.5452594 125.88588684 105.67018127 125.67073059 C106.70272034 125.50830872 107.7352594 125.34588684 108.79908752 125.17854309 C110.63471252 124.88979309 112.47033752 124.60104309 114.36158752 124.30354309 C114.36158752 118.03354309 114.36158752 111.76354309 114.36158752 105.30354309 C109.32143814 104.68827459 109.32143814 104.68827459 104.28077698 104.07722473 C100.6036967 103.62299443 96.98477663 103.09678568 93.36158752 102.30354309 C93.20303284 101.64869934 93.04447815 100.99385559 92.88111877 100.31916809 C90.2202419 89.91087622 86.56941461 80.49801443 80.40065002 71.65510559 C78.94364275 68.35766807 79.28999534 66.73605351 80.36158752 63.30354309 C81.85544398 60.84469784 83.59863283 58.64821565 85.42408752 56.42854309 C85.89652893 55.83557434 86.36897034 55.24260559 86.85572815 54.63166809 C88.01412897 53.18074181 89.18647924 51.74097137 90.36158752 50.30354309 C88.77491174 46.40068542 86.22808271 43.96833327 83.23658752 41.05354309 C82.3265094 40.16151184 81.41643127 39.26948059 80.47877502 38.35041809 C79.78010315 37.67494934 79.08143127 36.99948059 78.36158752 36.30354309 C77.02613112 37.17529935 75.6933709 38.0511858 74.36158752 38.92854309 C73.12795471 39.73871887 73.12795471 39.73871887 71.86940002 40.56526184 C68.90218709 42.62197485 66.17896869 44.90546512 63.47877502 47.29963684 C60.17357861 48.86686097 57.86358393 48.13149112 54.36158752 47.30354309 C51.10768127 45.81526184 51.10768127 45.81526184 47.79908752 43.99104309 C41.69526794 40.71294271 35.92182127 38.89848182 29.12721252 37.42073059 C26.36158752 36.30354309 26.36158752 36.30354309 25.03736877 34.19416809 C24.18430337 30.5452178 23.68880179 26.8994671 23.29908752 23.17854309 C22.72458471 17.66589593 22.72458471 17.66589593 21.36158752 12.30354309 C15.42158752 12.30354309 9.48158752 12.30354309 3.36158752 12.30354309 Z " fill="#000000" transform="translate(243.63841247558594,117.69645690917969)"/>
<path d="M0 0 C9.31041131 7.46977337 15.30097079 18.86670046 17.84765625 30.4453125 C19.35341237 48.30669544 16.00823055 62.48844238 4.66015625 76.6328125 C-2.84951107 84.82066563 -15.00015928 91.67376206 -26.25195312 92.62231445 C-44.28916592 93.11484496 -58.56313631 90.05907549 -72.2734375 77.484375 C-84.25266372 64.4840505 -86.95820435 49.80416356 -86.32714844 32.859375 C-85.50432122 21.49608515 -78.7165982 8.78476253 -70.35546875 1.1015625 C-48.21341054 -15.54424012 -22.60576556 -16.3286655 0 0 Z M-64.953125 14.765625 C-71.33767713 22.545026 -74.72387836 32.17691181 -74.40234375 42.28515625 C-72.915246 55.13461023 -67.11380082 65.28927055 -57.15234375 73.4453125 C-48.26556154 79.17917041 -38.01923303 81.94154107 -27.5234375 79.9453125 C-15.77589572 77.06969727 -6.21950616 71.29879779 0.453125 60.95703125 C6.14199647 50.22992171 7.28995832 39.79401757 3.8125 28.17578125 C0.19067478 17.92616252 -6.46233276 9.64668303 -16.15234375 4.5078125 C-33.92588294 -3.47102088 -51.64769232 0.6873493 -64.953125 14.765625 Z " fill="#000000" transform="translate(290.15234375,195.5546875)"/>
<path d="M0 0 C7.6499648 5.56772586 13.07529618 11.5354014 15 21 C15.76902627 30.39099387 14.42769999 38.77311633 8.58203125 46.3671875 C3.25160986 51.86870883 -3.443918 55.50276262 -11.078125 56.3359375 C-20.18739356 56.44812061 -26.62767743 54.8588263 -34.25 49.875 C-38.85845325 45.0570716 -43 39.81583958 -43 33 C-51.91 33 -60.82 33 -70 33 C-69.94779297 38.34445313 -69.94779297 38.34445313 -69.89453125 43.796875 C-69.87113896 47.24543456 -69.85292045 50.69398529 -69.83520508 54.14257812 C-69.82011318 56.54040479 -69.7996375 58.93820383 -69.77368164 61.3359375 C-69.73731689 64.78131933 -69.72027752 68.22633637 -69.70703125 71.671875 C-69.69154739 72.74491882 -69.67606354 73.81796265 -69.66011047 74.92352295 C-69.65977058 76.42462616 -69.65977058 76.42462616 -69.65942383 77.95605469 C-69.65276199 78.83541687 -69.64610016 79.71477905 -69.63923645 80.62078857 C-70.08288327 83.54660963 -70.92766069 84.90502693 -73 87 C-76.5 87.5 -76.5 87.5 -80 87 C-83.08012016 83.95161963 -83.38446996 81.53882268 -83.41992188 77.30102539 C-83.43583374 76.15626236 -83.45174561 75.01149933 -83.46813965 73.83204651 C-83.46834106 72.59969772 -83.46854248 71.36734894 -83.46875 70.09765625 C-83.47636353 68.8278038 -83.48397705 67.55795135 -83.49182129 66.24961853 C-83.50262895 63.56363657 -83.50684101 60.8785345 -83.50097656 58.19262695 C-83.49508112 54.75791921 -83.52566754 51.32462539 -83.56609344 47.89019108 C-83.59822347 44.6052061 -83.59385413 41.32027412 -83.59375 38.03515625 C-83.61014526 36.8048317 -83.62654053 35.57450714 -83.64343262 34.30690002 C-83.57554269 25.93200918 -83.57554269 25.93200918 -80.97192383 21.71582031 C-77.19750376 19.53668417 -74.09262747 19.36390921 -69.85546875 19.51171875 C-68.7007885 19.52233086 -68.7007885 19.52233086 -67.52278137 19.53315735 C-65.07667697 19.56103075 -62.63290616 19.62374863 -60.1875 19.6875 C-58.52412173 19.71259232 -56.86070738 19.73540387 -55.19726562 19.75585938 C-51.13061843 19.81083329 -47.06570411 19.89705073 -43 20 C-42.78633789 18.58750977 -42.78633789 18.58750977 -42.56835938 17.14648438 C-41.35153608 10.41005024 -37.07976614 5.41987069 -31.5625 1.5625 C-22.13677128 -4.0992106 -9.9090345 -5.39871535 0 0 Z M-28.25 16.1875 C-30.96811168 20.55589377 -32.43008136 24.96737501 -31.6953125 30.1484375 C-30.01325377 35.56840453 -26.79142736 39.05216794 -22 42 C-17.6315824 44.0907905 -14.04602464 44.31646635 -9.375 43.0625 C-4.004361 40.99972862 -0.54496895 37.08993789 2 32 C2.55713132 26.04298055 2.52180186 21.04791601 -1 16 C-5.20341082 11.77361972 -8.83945419 9.86182853 -14.8125 9.6875 C-20.92342574 9.75866071 -23.93325663 11.99066617 -28.25 16.1875 Z " fill="#000000" transform="translate(418,51)"/>
<path d="M0 0 C5.01787336 5.30460898 8.11046035 10.05554118 9.1875 17.3125 C10.22156982 17.28631592 11.25563965 17.26013184 12.32104492 17.2331543 C16.16929359 17.14243577 20.0174484 17.08517341 23.86645508 17.0378418 C25.53002839 17.01274653 27.19349196 16.97866204 28.85668945 16.93530273 C31.25239153 16.8744254 33.64663251 16.84624231 36.04296875 16.82421875 C37.15263252 16.78550911 37.15263252 16.78550911 38.28471375 16.74601746 C41.83774316 16.74410153 44.07490538 17.24749425 47.15942383 19.02832031 C50.37476338 24.23510347 49.86119279 29.34863215 49.78125 35.34765625 C49.78129028 36.61846542 49.78133057 37.8892746 49.78137207 39.19859314 C49.77601332 41.88333571 49.76108902 44.56589528 49.72949219 47.25024414 C49.68977382 50.68588322 49.68545319 54.12042731 49.69295502 57.55625248 C49.69676657 60.84097926 49.67594349 64.12549862 49.65625 67.41015625 C49.65594788 69.25867943 49.65594788 69.25867943 49.65563965 71.14454651 C49.63972778 72.28930954 49.62381592 73.43407257 49.60742188 74.61352539 C49.59900269 75.61992569 49.5905835 76.62632599 49.58190918 77.66322327 C49.12351604 80.7422852 48.39165367 82.13105953 46.1875 84.3125 C42.6875 84.8125 42.6875 84.8125 39.1875 84.3125 C37.11516069 82.21752693 36.27038327 80.85910963 35.82673645 77.93328857 C35.83339828 77.05392639 35.84006012 76.17456421 35.84692383 75.26855469 C35.84715042 74.26781921 35.84737701 73.26708374 35.84761047 72.23602295 C35.86309433 71.16297913 35.87857819 70.0899353 35.89453125 68.984375 C35.89877609 67.88023254 35.90302094 66.77609009 35.90739441 65.63848877 C35.92418332 62.11291084 35.96183691 58.58790509 36 55.0625 C36.01504652 52.67188326 36.02873498 50.28125755 36.04101562 47.890625 C36.07153527 42.03085236 36.13025867 36.17231644 36.1875 30.3125 C27.2775 30.3125 18.3675 30.3125 9.1875 30.3125 C8.8575 32.2925 8.5275 34.2725 8.1875 36.3125 C4.46527966 44.28868645 -1.60410946 49.26433561 -9.703125 52.44921875 C-18.78606192 54.97098893 -27.59171493 53.74739721 -35.8125 49.3125 C-41.83792829 45.6150781 -45.56448841 39.37580117 -48.1875 32.9375 C-49.57585533 24.88503911 -49.81274954 16.65473017 -45.8125 9.3125 C-34.17808363 -6.67299892 -17.10937047 -10.26562228 0 0 Z M-32.625 13.3125 C-36.32500625 18.38679428 -36.49775173 23.21185617 -35.8125 29.3125 C-33.35355131 34.23039738 -30.11376351 37.84285857 -25.03125 40.10546875 C-20.25334987 41.66966224 -16.58541878 41.31925817 -11.92578125 39.484375 C-7.04144026 36.77586798 -3.99664947 32.70901436 -2.25 27.4375 C-1.35430377 22.62313274 -2.4256273 18.54022877 -4.8125 14.3125 C-7.83504952 10.98351688 -11.35031576 7.54277622 -15.984375 7.109375 C-23.04412451 6.98101592 -27.80047612 7.80267443 -32.625 13.3125 Z " fill="#000000" transform="translate(127.8125,53.6875)"/>
<path d="M0 0 C6.732185 5.66169622 10.34714413 13.14709347 11.1875 21.875 C11.42074714 30.43654197 8.85656025 37.75866383 3.13671875 44.17578125 C-0.37865655 47.49686983 -3.41850997 49.82647364 -7.97338867 51.48071289 C-8.69266037 51.74388809 -9.41193207 52.00706329 -10.15299988 52.2782135 C-10.97445244 52.57362282 -10.97445244 52.57362282 -11.8125 52.875 C-11.82708252 53.94983643 -11.84166504 55.02467285 -11.85668945 56.13208008 C-11.9146489 60.11874717 -11.99188129 64.10484801 -12.07495117 68.09106445 C-12.10821172 69.81655693 -12.13624019 71.54215849 -12.15893555 73.26782227 C-12.19246153 75.74803166 -12.24477406 78.2272403 -12.30078125 80.70703125 C-12.31036613 81.86498955 -12.31036613 81.86498955 -12.32014465 83.04634094 C-12.46620968 88.36320467 -12.46620968 88.36320467 -14.15698242 90.86206055 C-16.78033647 92.46717719 -18.81864735 92.24923158 -21.8125 91.875 C-23.46801758 90.86206055 -23.46801758 90.86206055 -24.8125 88.875 C-25.14359523 86.08359238 -25.30107678 83.50283312 -25.32421875 80.70703125 C-25.34216995 79.91221848 -25.36012115 79.1174057 -25.37861633 78.29850769 C-25.4327697 75.76155899 -25.46663028 73.22479893 -25.5 70.6875 C-25.53316874 68.96677059 -25.56765799 67.2460661 -25.60351562 65.52539062 C-25.68849873 61.30872978 -25.75528542 57.09212536 -25.8125 52.875 C-26.629534 52.58400925 -26.629534 52.58400925 -27.46307373 52.28713989 C-28.18005432 52.0262558 -28.89703491 51.7653717 -29.63574219 51.49658203 C-30.70027618 51.11277878 -30.70027618 51.11277878 -31.78631592 50.72122192 C-37.99423818 48.12852565 -43.44652321 42.43289066 -46.375 36.4375 C-49.67510986 27.35434047 -49.34299025 18.87714353 -45.8125 9.875 C-41.43410843 2.22725536 -35.31568473 -3.00801865 -26.8125 -5.4375 C-17.05225367 -7.41233583 -8.14552842 -5.83176536 0 0 Z M-33.61328125 15.15625 C-36.22963985 18.90607991 -36.17529078 22.44895251 -35.8125 26.875 C-34.0130142 32.11698037 -31.60094398 35.91072516 -26.8125 38.875 C-21.96015268 41.13942875 -17.90411341 41.27010208 -12.8125 39.875 C-7.10127258 36.90955499 -3.84764297 32.9804289 -1.8125 26.875 C-1.41485775 21.6062402 -1.88822333 18.30858076 -4.8125 13.875 C-9.14317796 9.493132 -12.28808872 7.04053517 -18.625 6.625 C-25.57434973 6.76474926 -29.33508192 10.03588545 -33.61328125 15.15625 Z " fill="#000000" transform="translate(274.8125,15.125)"/>
</svg>
